<svg width="25" height="24" viewBox="0 0 25 24" fill="none" xmlns="http://www.w3.org/2000/svg">
<path fill-rule="evenodd" clip-rule="evenodd" d="M10.5 16.4V18.8H15.4928C17.2848 16.2292 18.4596 13.11 18.1416 9.99998H15.812C15.7004 9.99998 15.5896 9.98437 15.4824 9.95397L14.5336 9.68278C14.4016 10.1936 14.234 10.6964 14.0324 11.1864L13.9424 11.4048C14.0428 11.5804 14.1 11.7836 14.1 12V15.6C14.7628 15.6 15.3 16.1372 15.3 16.8V17.6C15.3 17.8208 15.1208 18 14.9 18H11.7C11.4792 18 11.3 17.8208 11.3 17.6V13.2H8.5C8.2792 13.2 8.1 13.0208 8.1 12.8V11.0832C8.1 9.20717 8.8388 7.09518 9.1728 6.22518C9.2776 5.96598 9.462 5.74678 9.7 5.59998H13.7C14.0184 5.59998 14.3236 5.72637 14.5484 5.95157C14.7736 6.17637 14.9 6.48158 14.9 6.79998C14.9 6.92518 14.898 7.13598 14.8936 7.35358L15.702 7.58478C15.738 7.59478 15.7748 7.59998 15.812 7.59998H18.242C18.524 7.35118 18.8944 7.19998 19.3 7.19998C19.6784 7.19998 20.0268 7.33158 20.3008 7.55198L22.0216 7.20757C22.1392 7.18437 22.2608 7.21478 22.3536 7.29078C22.4464 7.36678 22.5 7.47998 22.5 7.59998V9.99998C22.5 10.12 22.4464 10.2332 22.3536 10.3092C22.2608 10.3852 22.1392 10.4156 22.0216 10.3924L21.0264 10.1932C22.2668 12.2896 22.9 14.7156 22.9 17.1616V18.672C23.0224 18.77 23.14 18.8752 23.252 18.9872C24.0512 19.786 24.5 20.87 24.5 22C24.5 22.3296 24.1936 22.3888 24.1172 22.3984L24.1 22.4H23.66C23.4748 23.3128 22.6676 24 21.7 24H21.6992C20.7316 24 19.9248 23.3128 19.74 22.4H6.86C6.6748 23.3128 5.8676 24 4.9 24C3.9324 24 3.1252 23.3128 2.94 22.4H0.9C0.9 22.4 0.5 22.376 0.5 21.9992C0.5 19.8024 1.4084 17.8176 2.87 16.4H10.5ZM23.6764 21.6H19.7V18.9392C19.7 18.7184 19.8792 18.5392 20.1 18.5392H20.2392C21.1572 18.5392 22.0372 18.9036 22.6864 19.5528C23.2404 20.1068 23.5872 20.8296 23.6764 21.6ZM6.9 21.6V21.2C6.9 20.758 6.542 20.4 6.1 20.4H4.4992C4.0752 20.4 3.6684 20.5684 3.3684 20.8684C3.1644 21.0724 3.0212 21.3256 2.9508 21.6H6.9ZM19.8924 9.33757C20.0212 9.19557 20.1 9.00678 20.1 8.79998C20.1 8.35838 19.7416 7.99998 19.3 7.99998C18.8584 7.99998 18.5 8.35838 18.5 8.79998C18.5 9.24158 18.8584 9.59998 19.3 9.59998C19.5284 9.59998 19.7348 9.50398 19.8808 9.34998C19.8844 9.34598 19.8884 9.34157 19.8924 9.33757Z" fill="#727272"/>
<path fill-rule="evenodd" clip-rule="evenodd" d="M11.7 4.8H12.4072C13.106 4.8 13.7448 4.4052 14.0572 3.7804L14.0575 3.7796C14.2743 3.3456 14.3168 2.8536 14.1904 2.4H14.5C14.5 2.4 14.9 2.3772 14.9 2C14.9 1.4696 14.6891 0.960799 14.3143 0.585599C13.9391 0.210799 13.4304 0 12.9 0C12.7692 0 12.6352 0 12.5 0C10.9536 0 9.69995 1.2536 9.69995 2.8C9.69995 3.3304 9.91075 3.8392 10.2856 4.2144C10.6608 4.5892 11.1696 4.8 11.7 4.8ZM12.5 2.4V3.996C12.8588 3.964 13.1784 3.7484 13.3416 3.4224L13.3419 3.4216C13.5039 3.0972 13.4992 2.7176 13.3356 2.4H12.5Z" fill="#727272"/>
<path fill-rule="evenodd" clip-rule="evenodd" d="M10.5 14.3998C10.5 14.179 10.3208 13.9998 10.1 13.9998H1.3C0.858 13.9998 0.5 14.3582 0.5 14.7998C0.5 15.2414 0.858 15.5998 1.3 15.5998H10.1C10.3208 15.5998 10.5 15.4206 10.5 15.1998V14.3998Z" fill="#727272"/>
<path fill-rule="evenodd" clip-rule="evenodd" d="M7.3 8.39998C7.3 8.18798 7.2156 7.98438 7.0656 7.83438C6.9156 7.68438 6.712 7.59998 6.5 7.59998C5.4356 7.59998 2.3644 7.59998 1.3 7.59998C0.858 7.59998 0.5 7.95798 0.5 8.39998C0.5 8.48878 0.5 11.2584 0.5 12.4C0.5 12.842 0.858 13.2 1.3 13.2C2.3644 13.2 5.4356 13.2 6.5 13.2C6.942 13.2 7.3 12.842 7.3 12.4C7.3 11.2584 7.3 8.48878 7.3 8.39998ZM5.3 8.39998H2.5V9.59998C2.5 10.042 2.858 10.4 3.3 10.4C3.5576 10.4 4.2424 10.4 4.5 10.4C4.942 10.4 5.3 10.042 5.3 9.59998C5.3 9.19998 5.3 8.39998 5.3 8.39998Z" fill="#727272"/>
</svg>
