<svg width="126" height="143" viewBox="0 0 126 143" fill="none" xmlns="http://www.w3.org/2000/svg">
<path d="M50 130.518C77.6142 130.518 100 108.132 100 80.518C100 52.9038 77.6142 30.518 50 30.518C22.3858 30.518 0 52.9038 0 80.518C0 108.132 22.3858 130.518 50 130.518Z" fill="#FFE5D8"/>
<path d="M38.5739 139.519C37.7518 138.539 36.3817 138.146 35.1069 138.25C33.8324 138.354 32.8137 138.923 31.6969 139.546C30.7244 140.089 30.3898 140.972 29.2254 141.376L28.251 141.661C28.3725 141.716 28.8717 141.976 29.0043 141.994C31.6429 142.355 34.3207 142.228 36.9807 142.1C37.7124 142.065 38.5706 141.956 38.9282 141.317C39.2461 140.749 38.9919 140.017 38.5739 139.519Z" fill="#172F35"/>
<path d="M119.87 36.1303C122.979 22.6713 114.589 9.23983 101.13 6.13029C87.6713 3.02076 74.2399 11.4107 71.1303 24.8697C68.0208 38.3287 76.4107 51.7601 89.8697 54.8697C103.329 57.9792 116.76 49.5893 119.87 36.1303Z" fill="#27AE60"/>
<path d="M117.58 35.8293C120.529 23.6273 113.028 11.3452 100.826 8.39634C88.624 5.44753 76.3418 12.9487 73.393 25.1507C70.4442 37.3527 77.9454 49.6348 90.1474 52.5837C102.349 55.5325 114.632 48.0313 117.58 35.8293Z" fill="white"/>
<path d="M116.935 38.0409C117.236 37.1852 117.486 36.3065 117.685 35.4077H115.462V19.6219C114.716 18.2537 113.83 16.9738 112.829 15.7946V35.4077H81.6253V25.4014H108.747V12.0289C107.91 11.4265 107.031 10.879 106.114 10.3931V22.7682H88.34V8.91553C87.4366 9.21495 86.5563 9.56522 85.7068 9.97096V22.7682H78.9921V31.1942H72.7817C72.809 32.0853 72.8829 32.9645 73.0103 33.8274H78.9926V46.1125C79.8072 46.9723 80.6865 47.7689 81.6258 48.493V38.0409H116.935Z" fill="#BEEED2"/>
<path d="M105.29 38.3875L95.5545 28.0838L85.8193 38.3875H88.7946V48.4473H102.315V38.3875H105.29Z" fill="#0C4E5F"/>
<path d="M100.11 16.7621C100.11 19.3265 95.4671 23.7773 95.4671 23.7773C95.4671 23.7773 90.8242 19.326 90.8242 16.7621C90.8242 14.1978 92.9027 12.1193 95.4671 12.1193C98.0309 12.1193 100.11 14.1978 100.11 16.7621Z" fill="#F46B29"/>
<path d="M95.4924 18.7745C96.7045 18.7745 97.6865 17.792 97.6865 16.5804C97.6865 15.3683 96.704 14.3858 95.4924 14.3858C94.2804 14.3858 93.2979 15.3683 93.2979 16.5804C93.2979 17.792 94.2804 18.7745 95.4924 18.7745Z" fill="#FFC088"/>
<path d="M42.7916 53.3286C43.0947 53.1233 43.3995 52.813 43.3503 52.4501C43.2882 51.9943 42.7401 51.8068 42.2865 51.7315C39.2047 51.2186 36.0374 51.4272 32.965 51.9945C29.8929 52.5621 26.8987 53.4829 23.9127 54.4017C23.3994 54.5597 22.7895 54.8328 22.7539 55.3687C22.7325 55.6885 22.9489 55.9874 23.2236 56.1523C23.4984 56.3173 23.8235 56.3729 24.1413 56.414C26.0463 56.6621 27.9799 56.5167 29.8882 56.2961C33.3738 55.8932 36.8309 55.2402 40.2233 54.3444C41.1177 54.1081 42.0251 53.8472 42.7916 53.3286Z" fill="#172F35"/>
<path d="M72.5505 69.056C72.3942 66.5065 72.0616 63.931 72.4896 61.4128C70.9078 61.2399 69.326 61.0669 67.7445 60.8939C67.3935 62.5611 66.9747 64.2138 66.4911 65.8474C66.3743 65.6079 66.2605 65.3671 66.1549 65.1218C65.5091 63.6234 65.1003 62.0341 64.5169 60.5104C63.9332 58.9867 63.1445 57.4917 61.9025 56.4333C61.4464 56.0445 60.8535 55.7058 60.2743 55.859C59.9049 55.9566 59.6141 56.2386 59.3729 56.535C58.6952 57.3679 58.277 58.383 57.9738 59.4131C57.4891 61.0605 57.2792 62.8275 57.6777 64.4978C58.4474 67.7237 61.2718 69.9946 62.9459 72.8576C63.4034 73.6399 63.8611 74.2208 64.2914 75.0181C65.0517 76.4915 64.9732 76.7854 65.3845 77.442C66.1679 78.6923 68.0782 79.0414 69.5193 78.7252C70.8327 78.437 70.9798 77.7819 71.5608 76.5694C72.6643 74.2656 72.7071 71.6056 72.5505 69.056Z" fill="#A6BEBD"/>
<path d="M68.8952 62.0833C68.9175 62.0077 68.8741 61.9287 68.7982 61.9065C68.7234 61.8837 68.6435 61.9279 68.6216 62.0032C67.5114 65.8062 66.8771 69.7432 66.7366 73.7055C66.7066 74.5532 66.7027 75.4486 67.0094 76.2632C67.0456 76.3591 67.0859 76.4548 67.1268 76.5502C67.2558 76.8533 67.3774 77.1394 67.3585 77.4365C67.3454 77.6406 67.2027 77.8583 67.0195 77.954C66.9694 77.9804 66.9013 78.0038 66.8303 77.9985C66.911 77.8172 66.9839 77.618 66.9919 77.4028C67.0017 77.1289 66.879 76.7966 66.5831 76.6709C66.4869 76.63 66.3865 76.6186 66.2984 76.6086C66.2466 76.6024 66.1946 76.5972 66.1446 76.5844C65.733 76.4798 65.5906 75.9239 65.4899 75.4111C65.0881 73.3671 64.0394 71.5575 63.0252 69.808L62.1708 68.3338C62.1625 68.4537 62.1483 68.5582 62.1233 68.7023C62.1186 68.7295 62.1072 68.751 62.0952 68.7718L62.7785 69.9509C63.781 71.6804 64.8175 73.4689 65.2104 75.4664C65.3011 75.9289 65.4535 76.7031 66.0745 76.8608C66.1368 76.8766 66.2016 76.8847 66.2661 76.8919C66.3417 76.9006 66.4135 76.9089 66.4719 76.9337C66.6424 77.0057 66.713 77.222 66.7069 77.3925C66.6991 77.608 66.6009 77.818 66.5066 78.0213C66.4761 78.0872 66.4997 78.1659 66.562 78.2034C66.6524 78.2579 66.7503 78.2852 66.8515 78.2852C66.9499 78.2852 67.052 78.2591 67.1516 78.2071C67.4216 78.0661 67.6238 77.7565 67.6429 77.4548C67.666 77.0902 67.5253 76.759 67.3893 76.4386C67.3501 76.3466 67.3112 76.2548 67.2761 76.1625C66.988 75.3975 66.9925 74.5342 67.0217 73.7155C67.1613 69.7771 67.7917 65.8635 68.8952 62.0833Z" fill="#E8E8E8"/>
<path d="M61.0332 71.9477C61.8071 67.9192 62.1219 63.795 61.845 59.7023C62.427 61.3219 63.0138 62.9627 63.1731 64.6763C63.4134 67.2534 62.6309 69.9117 61.0332 71.9477Z" fill="#172F35"/>
<path d="M68.0503 62.7741C68.4958 63.0781 69.0256 63.2566 69.5643 63.2842C70.2311 63.3181 70.8938 63.124 71.4926 62.8286C71.853 62.6509 72.2204 62.4051 72.3436 62.0227C72.4278 61.7605 72.3825 61.4763 72.3363 61.2046C72.2646 60.7832 72.1931 60.3622 72.1214 59.9409C72.0972 59.7982 72.0696 59.6483 71.9776 59.5365C71.8535 59.3858 71.6441 59.3413 71.4509 59.3143C70.6677 59.205 69.8663 59.2287 69.0909 59.3844C68.599 59.4831 68.0639 59.6786 67.8484 60.1319C67.7491 60.3408 67.7324 60.578 67.7174 60.8088C67.6929 61.1831 67.6685 61.5577 67.644 61.9323C67.6348 62.0711 67.6265 62.214 67.671 62.3459C67.7336 62.5294 67.8898 62.6646 68.0503 62.7741Z" fill="#172F35"/>
<path d="M69.6389 54.6852C69.7112 54.7155 69.7935 54.6896 69.8675 54.6635C70.3547 54.4916 70.8422 54.3195 71.3294 54.1473C70.7696 53.2377 70.1014 52.3948 69.3433 51.6422C69.3955 52.5541 69.4475 53.466 69.4998 54.3779C69.5065 54.4966 69.5293 54.6393 69.6389 54.6852Z" fill="#FFC088"/>
<path d="M69.1492 58.3788H64.9472C64.6991 58.3788 64.498 58.1777 64.498 57.9297V49.472C64.498 49.2239 64.6991 49.0228 64.9472 49.0228H69.1489C69.397 49.0228 69.598 49.2239 69.598 49.472V57.9297C69.598 58.1777 69.397 58.3788 69.1492 58.3788Z" fill="#A6BEBD"/>
<path d="M64.9666 57.7662C65.084 57.99 65.3829 58.029 65.6357 58.0334C66.6046 58.0498 67.5718 57.9631 68.5368 57.8763C68.6428 57.8668 68.7554 57.8546 68.838 57.7879C68.93 57.7136 68.9626 57.5899 68.9887 57.4744C69.363 55.8173 69.457 54.097 69.2651 52.4087C67.9773 52.2849 66.6891 52.1609 65.4013 52.0371C65.235 52.0213 65.0456 52.0126 64.9252 52.1286C64.8106 52.2393 64.8061 52.4184 64.8092 52.5777C64.8423 54.1982 64.8757 55.8187 64.9088 57.4389C64.9113 57.5506 64.9146 57.6672 64.9666 57.7662Z" fill="#172F35"/>
<path d="M71.7247 59.3238C71.7116 58.0148 71.6894 55.7875 71.6771 54.5742C71.6707 53.9462 71.186 53.6606 70.6384 53.5185C70.1504 53.3917 64.9428 52.316 64.9444 52.3055C64.8991 52.5708 65.0056 52.8439 65.1708 53.0566C65.336 53.2694 65.5557 53.4315 65.7726 53.5908C65.5276 53.7666 65.2801 53.9449 65.0865 54.176C64.8933 54.4071 64.7567 54.7007 64.7745 55.0016C64.7923 55.3025 64.9909 55.6018 65.2829 55.6771C65.1043 55.9082 64.9186 56.1574 64.8955 56.4486C64.8724 56.7397 65.0921 57.0687 65.3833 57.0442C65.2762 57.3941 65.2197 57.7598 65.2164 58.1258C65.925 58.4417 66.4581 59.1233 66.5941 59.8872C66.7735 59.8847 66.9331 59.7571 67.0187 59.5994C67.0251 59.5877 67.0288 59.5749 67.0346 59.563C67.4734 59.9681 67.947 60.3336 68.2919 60.8277C69.4471 61.0018 70.6596 60.8753 71.7152 60.3906C71.73 60.0349 71.7283 59.6767 71.7247 59.3238Z" fill="#FFC088"/>
<path d="M18.6255 57.171C16.817 59.1413 16.1591 61.9145 15.9928 64.5836C15.7503 68.4742 16.4063 72.3667 17.2926 76.1627C17.9444 78.9548 18.7317 81.743 20.0741 84.2767C21.4165 86.8105 23.3579 89.0947 25.888 90.4438C29.7354 92.4953 34.4097 92.1574 38.6676 91.2185C42.9255 90.2794 47.1148 88.7891 51.4739 88.6957C52.9501 88.664 54.6848 88.6787 55.5625 87.4912C56.1604 86.6822 56.1259 85.5846 56.0603 84.5807C55.8281 81.016 55.5338 77.4556 55.1784 73.9012C54.8292 70.4097 54.4159 66.9007 53.3844 63.5469C52.3527 60.193 50.6616 56.9732 48.08 54.5966C46.8172 53.4342 45.3297 52.4767 43.6703 52.0379C41.9402 51.5804 40.1148 51.7044 38.3331 51.8721C34.4861 52.2345 30.657 52.7862 26.8641 53.5249C23.8637 54.1094 20.6926 54.919 18.6255 57.171Z" fill="#F46B29"/>
<path d="M44.227 55.2193C38.7357 55.5391 33.2794 56.4557 27.9848 57.9471C27.6424 58.0436 27.5259 58.4777 27.777 58.7297C28.1608 59.1149 28.5232 59.6165 28.6483 59.7948C31.8748 64.3881 31.798 70.5229 31.9649 75.8896C32.1023 80.3038 31.9449 84.7203 31.7838 89.1314C31.7627 89.7124 31.7783 90.3912 32.2438 90.7391C32.5625 90.9772 32.9941 90.9763 33.3918 90.9638C41.0011 90.7213 48.5895 89.8375 56.0508 88.3252C56.4412 78.0596 55.5622 68.957 52.3635 61.3293C51.9366 60.3115 48.9565 56.3892 48.0182 55.808C46.9128 55.1231 45.5251 55.1437 44.227 55.2193Z" fill="#172F35"/>
<path d="M28.002 62.1611C27.5545 61.0137 26.8301 59.7289 26.0706 58.7594C25.3111 57.79 24.2721 56.9958 23.0685 56.7357C20.9734 56.2833 18.7711 57.595 17.7163 59.4608C19.0417 58.3086 21.0123 58.0653 22.6823 58.6087C24.3525 59.1521 25.7322 60.3952 26.7049 61.8577C27.6777 63.3199 28.2784 64.9971 28.7609 66.6857C30.9606 74.3818 30.8664 82.543 30.2278 90.5216C31.4378 80.9607 31.5035 71.1394 28.002 62.1611Z" fill="#FFC088"/>
<path d="M61.021 83.4371H40.0942V87.8867H61.021V83.4371Z" fill="#172F35"/>
<path d="M61.8041 56.5447C61.6992 56.1587 61.573 55.7602 61.2937 55.4735C60.7136 54.8778 59.7542 54.9904 58.9283 54.8945C57.3987 54.7168 56.0822 53.6767 55.2093 52.4016C52.1953 53.7774 48.6818 54.0429 45.9815 51.8699C45.6984 52.1344 45.4011 52.3833 45.0924 52.6141C43.5034 53.8032 41.6329 54.5658 39.7291 55.127C39.0672 55.3222 38.362 55.5157 37.8895 56.0188C37.0599 56.902 37.2902 58.3023 37.5357 59.4889C39.1175 67.1318 39.0502 75.1104 37.3539 82.7277C37.0744 83.9822 37.9084 85.21 39.1723 85.4422C46.7794 86.8402 54.6998 86.5221 62.1664 84.5011C59.8641 75.4132 64.2638 65.5917 61.8041 56.5447Z" fill="#A6BEBD"/>
<path d="M50.8824 62.6442C49.2169 63.1784 47.4441 63.3767 45.7018 63.2232C45.7001 62.5482 45.6984 61.8736 45.6968 61.1986C47.4171 61.0557 49.1307 60.8338 50.8307 60.5331C50.8477 61.237 50.8652 61.9406 50.8824 62.6442Z" fill="white"/>
<path d="M50.8394 53.7918C52.1575 55.2004 52.194 57.342 52.1623 59.2709C52.0087 68.6091 52.0677 77.9506 52.3388 87.2863C53.172 87.2151 54.0052 87.1439 54.8384 87.0727C54.6407 78.3021 54.4429 69.5315 54.2452 60.7609C54.1915 58.3771 54.1334 55.9638 53.4916 53.6672C52.6075 53.7087 51.7234 53.7501 50.8394 53.7918Z" fill="#172F35"/>
<path d="M53.7019 75.7055C53.4719 70.8967 53.2338 65.9237 53.6068 60.9956C53.8106 58.2967 53.2831 56.1768 52.6829 53.9823C52.5898 54.0034 52.4961 54.0207 52.4023 54.0374C52.998 56.2146 53.5233 58.315 53.3223 60.9742C52.9485 65.9199 53.1868 70.9017 53.4171 75.7191C53.4914 77.2684 53.5681 78.8705 53.6237 80.4548C53.6938 82.4515 53.7664 84.5161 53.4797 86.5212C53.4686 86.5991 53.5228 86.6714 53.6009 86.6825C53.6076 86.6833 53.6146 86.6839 53.6212 86.6839C53.6908 86.6839 53.7519 86.6327 53.7622 86.5613C54.052 84.5314 53.9794 82.4541 53.9091 80.4448C53.8526 78.8585 53.7761 77.2556 53.7019 75.7055Z" fill="#A6BEBD"/>
<path d="M45.1582 52.5287C46.7103 53.7384 48.6333 54.4654 50.5978 54.5841C52.562 54.7031 54.5587 54.2137 56.2453 53.1997C55.8374 52.8518 55.5209 52.3972 55.3365 51.8935C53.8938 52.5279 52.3181 52.9381 50.7474 52.8082C49.1767 52.6783 47.6116 51.9561 46.6919 50.676C46.3551 51.4138 45.8201 52.0601 45.1582 52.5287Z" fill="#172F35"/>
<path d="M52.1648 109.441C51.6581 109.441 49.7223 109.441 49.2156 109.441C45.4777 109.441 42.4473 115.721 42.4473 123.467C42.4473 131.213 45.4774 137.492 49.2156 137.492C49.7223 137.492 51.6581 137.492 52.1648 137.492C55.9027 137.492 58.9331 131.212 58.9331 123.467C58.9331 115.721 55.9027 109.441 52.1648 109.441Z" fill="#172F35"/>
<path d="M47.8189 133.35C49.5629 133.35 50.9767 128.925 50.9767 123.467C50.9767 118.008 49.5629 113.583 47.8189 113.583C46.0749 113.583 44.6611 118.008 44.6611 123.467C44.6611 128.925 46.0749 133.35 47.8189 133.35Z" fill="#A6BEBD"/>
<path d="M47.1063 129.779C48.5668 129.779 49.7507 126.074 49.7507 121.503C49.7507 116.932 48.5668 113.227 47.1063 113.227C45.6459 113.227 44.4619 116.932 44.4619 121.503C44.4619 126.074 45.6459 129.779 47.1063 129.779Z" fill="#172F35"/>
<path d="M71.4256 96.8035C68.6393 93.2884 64.4721 90.899 60.0312 90.2702C55.59 89.6412 50.9232 90.7797 47.2704 93.383C45.9575 94.3185 44.7428 95.4773 44.101 96.9559C43.1582 99.127 43.579 101.618 44.0159 103.945C45.1705 110.093 46.3249 116.241 47.4796 122.388C47.6139 123.103 47.7593 123.845 48.1912 124.43C48.758 125.198 49.7141 125.56 50.6315 125.824C57.4557 127.783 64.7382 126.372 71.6942 124.952C73.0981 124.665 74.6445 124.287 75.4457 123.099C75.884 122.449 76.0261 121.649 76.1363 120.872C76.6924 116.949 76.6949 112.947 76.1432 109.023C75.5283 104.648 74.1704 100.266 71.4256 96.8035Z" fill="#172F35"/>
<path d="M48.2881 104.003C47.2867 101.506 45.8364 98.3726 43.0538 97.6053C40.7072 96.9585 38.1526 98.1874 36.5984 100.061C35.0441 101.934 34.3063 104.342 33.7379 106.709C32.2153 113.05 32.5387 119.852 34.7137 126C40.3415 126.624 44.8842 126.966 50.7896 126.72C51.1467 126.705 51.1736 120.271 51.1617 119.651C51.1158 117.261 50.8919 114.874 50.4945 112.516C50.0254 109.735 49.418 106.843 48.3563 104.174C48.3337 104.118 48.3112 104.061 48.2881 104.003Z" fill="#F46B29"/>
<path d="M48.2182 105.681C49.4635 108.78 49.4323 112.275 48.7293 115.541C48.0263 118.806 46.6861 121.894 45.3543 124.957C45.131 125.471 44.7167 126.085 44.176 125.939C43.7736 125.83 43.6096 125.359 43.5078 124.955C42.7441 121.929 41.9777 118.887 41.7071 115.777C41.4365 112.668 41.6815 109.461 42.8804 106.579C43.2694 105.643 43.7884 104.712 44.6307 104.15C45.4731 103.588 46.7078 103.509 47.4428 104.206L48.2182 105.681Z" fill="#172F35"/>
<path d="M54.3938 125.332C52.0291 125.07 49.4347 124.694 47.8649 122.907C47.5598 123.884 47.9906 124.977 48.7111 125.704C49.4314 126.432 50.3978 126.858 51.3594 127.21C58.3324 129.762 66.0401 129.234 73.3721 128.06C73.7325 127.007 72.5423 128.385 72.9024 127.332C66.44 129.227 61.0875 126.072 54.3938 125.332Z" fill="#F46B29"/>
<path d="M28.5366 128.009C32.1419 130.59 36.7747 131.689 41.0123 130.385C37.0911 128.537 32.8418 127.501 28.5366 128.009Z" fill="#172F35"/>
<path d="M38.4863 134.032C38.6807 131.977 38.8751 129.921 39.0698 127.865C36.4843 127.983 33.8864 127.823 31.3351 127.389C31.1858 129.287 30.9188 131.177 30.5361 133.042C33.1861 133.372 35.8361 133.702 38.4863 134.032Z" fill="white"/>
<path d="M83.3949 103.983C81.7923 100.179 80.8643 96.0978 80.3451 91.995C79.731 87.1442 79.6693 82.2428 79.6081 77.3536C75.8844 76.957 72.0865 77.2687 68.4771 78.2671C70.9443 87.4081 73.9277 96.8906 79.2889 105.149C80.6682 104.831 82.0359 104.41 83.3949 103.983Z" fill="#FFC088"/>
<path d="M35.7405 130.909C36.6098 131.052 37.4599 131.449 38.025 132.125C38.9978 133.289 38.9427 134.979 38.7508 136.484C38.559 137.989 38.2984 139.603 38.9836 140.956C35.5102 140.944 32.0362 141.101 28.5781 141.429C28.2193 138.978 28.3665 136.359 29.5912 134.206C30.8157 132.054 33.2971 130.505 35.7405 130.909Z" fill="#0C4E5F"/>
<path d="M34.8168 130.63C34.3855 130.676 33.9174 130.809 33.6855 131.176C33.5612 131.372 33.5228 131.61 33.4945 131.84C33.2945 133.468 33.4714 135.141 34.0073 136.691C34.089 136.928 34.1994 137.184 34.4277 137.287C34.5776 137.354 34.7495 137.34 34.9136 137.33C36.0104 137.265 37.1208 137.437 38.1462 137.832C38.0308 136.213 38.0875 134.581 38.3147 132.974C38.3762 132.539 38.4418 132.063 38.2101 131.69C38.0725 131.469 37.8472 131.318 37.6186 131.193C36.7702 130.728 35.7787 130.529 34.8168 130.63Z" fill="#F46B29"/>
<path d="M30.0699 134.691C30.3049 134.407 30.6336 134.134 30.9979 134.188C31.3016 134.234 31.5258 134.496 31.6698 134.767C31.9629 135.317 32.0411 135.952 32.1907 136.558C32.3403 137.163 32.595 137.789 33.1145 138.134C32.1626 138.911 31.0271 139.462 29.8277 139.728C29.5933 139.781 29.3502 139.822 29.1141 139.778C28.878 139.735 28.6475 139.591 28.5613 139.366C28.4898 139.181 28.5254 138.973 28.5621 138.778C28.8318 137.334 29.1325 135.822 30.0699 134.691Z" fill="#A6BEBD"/>
<path d="M39.2521 139.557C39.2018 138.455 38.9334 137.263 38.0705 136.576C37.0532 135.765 35.5423 135.942 34.3788 136.522C33.4889 136.966 32.7155 137.608 31.8826 138.151C31.0497 138.694 30.1114 139.15 29.1169 139.15C28.801 139.15 28.4526 139.113 28.2003 139.303C27.915 139.518 27.8805 139.926 27.8705 140.283C27.8597 140.682 27.8608 141.12 28.1122 141.43C28.3803 141.761 28.8455 141.84 29.2691 141.886C31.9744 142.177 34.7053 141.999 37.4203 141.821C37.8177 141.795 38.2349 141.763 38.5689 141.546C39.1854 141.146 39.2858 140.291 39.2521 139.557Z" fill="#FFC088"/>
<path d="M57.7347 40.0859C58.6099 43.1222 58.0356 46.5425 56.2166 49.1265C55.8351 49.6685 55.3832 50.19 54.7827 50.4708C53.6726 50.9906 52.3714 50.5743 51.2195 50.1541C49.923 49.681 48.5768 49.176 47.6304 48.1718C46.7385 47.2255 46.3036 45.9329 46.0884 44.6506C45.8314 43.1197 45.8748 41.4605 46.6721 40.1282C47.6652 38.4685 49.668 37.6264 51.5997 37.5308C53.5313 37.4351 55.4324 37.9707 57.2923 38.5013L57.7347 40.0859Z" fill="#172F35"/>
<path d="M55.5082 52.8074C55.3628 52.6245 55.2256 52.4353 55.0999 52.2407C54.2295 50.8928 53.7757 49.3254 53.3332 47.7831C51.7164 47.8073 50.0995 47.8317 48.4826 47.8559C48.1425 49.1519 47.4401 50.3238 46.5312 51.3149C49.0138 53.236 52.4781 53.4337 55.5082 52.8074Z" fill="#FFC088"/>
<path d="M57.2558 43.593C57.245 43.5357 57.2333 43.4784 57.2208 43.4217C57.1271 42.9953 56.933 42.4895 57.1502 42.0662C57.4889 41.4069 57.4352 41.2464 56.9955 39.8821L56.5208 38.8206C55.4165 37.6234 53.7449 37.0555 52.1163 37.038C50.4878 37.0204 48.891 37.5038 47.3937 38.1448C46.8948 38.3584 46.3545 38.6431 46.1876 39.1596C46.0928 39.453 46.1384 39.7711 46.1879 40.0753C46.3842 41.2853 46.6234 42.4881 46.8626 43.6903C47.0553 44.6592 47.253 45.6431 47.7105 46.5185C48.2909 47.6293 49.2469 48.4883 50.1827 49.3217C50.5637 49.661 50.9525 50.0056 51.418 50.2139C52.3066 50.6118 53.3778 50.4489 54.2171 49.9555C55.0564 49.4622 55.6879 48.6755 56.1738 47.8317C56.6941 46.9282 57.0684 45.9407 57.2775 44.9189C57.3674 44.4826 57.3382 44.0299 57.2558 43.593Z" fill="#FFC088"/>
<path d="M50.178 42.4431C50.7787 41.8271 51.5468 41.5412 52.3669 41.6079C52.3975 41.4817 52.4593 41.3629 52.5488 41.2687C51.6025 41.1535 50.6213 41.5676 49.9976 42.2887C50.0682 42.3263 50.1269 42.3813 50.178 42.4431Z" fill="#0C4E5F"/>
<path d="M51.5516 43.7545C51.466 43.7632 51.3739 43.7679 51.2991 43.7248C51.2304 43.6853 51.1887 43.6116 51.162 43.5371C51.1097 43.3905 51.105 43.2273 51.1492 43.0779C51.1926 42.9319 51.2855 42.7971 51.4187 42.7234C51.5519 42.6497 51.7263 42.6449 51.8531 42.7295C52.0088 42.8335 52.0608 43.0365 52.0822 43.2225C52.0923 43.3093 52.0978 43.3997 52.0667 43.4812C52.0297 43.5768 51.9449 43.648 51.8509 43.6892C51.7569 43.7298 51.6537 43.7443 51.5516 43.7545Z" fill="#0C4E5F"/>
<path d="M51.8916 43.1425C51.8418 43.0552 51.7489 42.9765 51.6504 42.9962C51.5456 43.0171 51.4922 43.135 51.4755 43.2404C51.4638 43.3152 51.4622 43.3933 51.4866 43.4651C51.5108 43.5368 51.564 43.6013 51.6354 43.6261C51.7472 43.6647 51.8774 43.591 51.9252 43.4829C51.9728 43.3747 51.9502 43.2451 51.8916 43.1425Z" fill="#172F35"/>
<path d="M51.4391 43.2281C51.4753 43.2306 51.51 43.2101 51.5345 43.1834C51.5823 43.1311 51.5937 43.0385 51.539 42.9934C51.5061 42.9665 51.4566 42.9637 51.4191 42.9831C51.3813 43.0026 51.3554 43.0415 51.3473 43.0835C51.3354 43.1469 51.3749 43.224 51.4391 43.2281Z" fill="white"/>
<path d="M56.09 41.5882C56.4179 41.5882 56.7046 41.7825 56.8475 42.059C56.8492 42.0618 56.8514 42.0645 56.8531 42.0673C56.914 42.0448 56.9551 41.9722 56.9485 41.9038C56.9404 41.8215 56.8856 41.7517 56.8294 41.6911C56.7143 41.5662 56.5814 41.4549 56.4276 41.3829C56.2738 41.3109 56.0972 41.2803 55.9315 41.3181C55.8222 41.3429 55.714 41.4029 55.6642 41.5033C55.6328 41.5667 55.6358 41.6452 55.667 41.7072C55.793 41.6335 55.9365 41.5882 56.09 41.5882Z" fill="#0C4E5F"/>
<path d="M56.0049 43.086C55.9932 42.9789 56.0344 42.8721 56.0939 42.7826C56.1784 42.6549 56.3256 42.5465 56.4749 42.5801C56.5756 42.6029 56.654 42.6869 56.6954 42.7818C56.7369 42.8763 56.7472 42.9814 56.7549 43.0843C56.7641 43.2084 56.7622 43.353 56.6654 43.4311C56.5831 43.4976 56.4629 43.4876 56.3625 43.4553C56.1896 43.3994 56.0247 43.2659 56.0049 43.086Z" fill="#0C4E5F"/>
<path d="M56.5495 42.9044C56.5089 42.8566 56.446 42.8155 56.3868 42.836C56.3412 42.8519 56.3148 42.8989 56.2964 42.9437C56.2683 43.0123 56.2491 43.0872 56.2608 43.1603C56.2725 43.2334 56.32 43.3043 56.3907 43.3269C56.4872 43.3575 56.5959 43.2835 56.6246 43.1864C56.6529 43.0891 56.6151 42.9818 56.5495 42.9044Z" fill="#172F35"/>
<path d="M56.3058 42.9698C56.3333 42.9717 56.3598 42.9562 56.3784 42.9356C56.4146 42.8958 56.4235 42.8255 56.3817 42.7913C56.3567 42.7707 56.3192 42.7687 56.2905 42.7835C56.2619 42.7982 56.2421 42.828 56.236 42.8597C56.2268 42.9081 56.2569 42.9665 56.3058 42.9698Z" fill="white"/>
<path d="M56.5294 43.5426C55.6345 43.0268 54.0093 43.2473 53.0421 43.4119C52.0749 43.5766 50.9141 44.1558 50.0411 44.6038C49.7975 44.729 49.5408 44.8797 49.4366 45.1328C49.3762 45.2793 49.3754 45.4426 49.3768 45.6014C49.3832 46.4129 49.4204 47.2241 49.4886 48.0328C49.5105 48.2961 49.5375 48.5653 49.6479 48.8053C49.7611 49.0517 49.9549 49.2514 50.1588 49.4305C50.4711 49.705 50.8204 49.9458 51.2122 50.0851C51.8435 50.3098 53.5529 50.6777 54.177 50.4336C54.801 50.1894 54.7429 50.1644 55.1987 49.6733C56.102 48.6999 56.8061 47.7018 57.29 46.4651C57.5038 45.9187 57.7444 44.9403 57.5275 44.6353C57.364 44.4056 56.7741 43.6836 56.5294 43.5426Z" fill="#172F35"/>
<path d="M53.7069 43.6199C52.3197 43.7248 50.9765 44.2993 49.9292 45.2137C50.0638 46.548 50.0961 47.7363 50.2707 49.0706C50.4312 49.3646 50.7707 49.8332 51.0015 50.0061C51.7279 50.5509 52.4476 50.6769 53.3453 50.814C54.7597 51.0301 55.7075 50.116 56.482 48.9129C57.2565 47.7099 57.5916 45.9871 57.7415 44.5643C56.4773 43.5485 55.3243 43.4976 53.7069 43.6199Z" fill="white"/>
<path d="M50.1362 45.6264C49.0299 45.0354 48.2952 44.6216 47.5849 44.2217L47.1455 43.9748L47.2851 43.7262L47.7248 43.9734C48.4339 44.3725 49.1673 44.7854 50.271 45.375L50.1362 45.6264Z" fill="white"/>
<path d="M47.8017 46.9549L47.6768 47.2115L50.4571 48.5661L50.5821 48.3096L47.8017 46.9549Z" fill="white"/>
<path d="M48.9967 41.903C50.3154 40.8454 54.6643 41.0951 57.3493 40.8929C57.2945 40.6279 57.1641 40.4049 56.9955 39.8821L56.5208 38.8206C55.4165 37.6234 53.7449 37.0555 52.1163 37.038C50.4878 37.0204 48.891 37.5038 47.3937 38.1448C46.8948 38.3584 46.3545 38.6431 46.1876 39.1596C46.0928 39.453 46.1384 39.7711 46.1879 40.0753C46.3842 41.2853 46.6234 42.4881 46.8626 43.6903C47.0553 44.6592 47.253 45.6431 47.7105 46.5185C47.8873 46.8573 48.1023 47.1707 48.3381 47.4691C47.9791 45.2843 47.6763 43.2234 48.9967 41.903Z" fill="#172F35"/>
<path d="M48.8261 33.5979C47.2737 34.0209 45.7923 34.8343 44.7823 36.0869C43.7491 37.3681 43.273 39.0191 43.0934 40.6554C42.9304 42.1407 42.9966 43.67 43.4708 45.0869C43.9769 46.5992 44.9755 47.978 46.3846 48.7402C46.6235 48.8696 46.8933 48.9508 47.1628 48.9149C47.9106 48.8156 48.0591 48.05 48.0858 47.4115C48.1461 45.9743 48.0263 44.3972 47.7012 42.9152C47.4662 41.844 48.2476 40.8139 49.343 40.7625C52.3095 40.6235 55.2545 40.5937 58.2352 40.3812C58.3731 40.3715 58.5219 40.357 58.6245 40.2644C58.7466 40.1543 58.7624 39.971 58.763 39.8067C58.7702 37.5469 57.3594 35.403 55.3969 34.282C53.4347 33.161 51.0063 33.0036 48.8261 33.5979Z" fill="#F46B29"/>
<path d="M46.9316 48.9741C46.7461 48.9741 46.5759 48.9127 46.4477 48.7981C46.3887 48.7458 46.3837 48.6557 46.436 48.597C46.4886 48.5381 46.5787 48.5331 46.6374 48.5853C46.7444 48.6805 46.8757 48.6946 46.9688 48.6877C47.1493 48.6757 47.3359 48.5826 47.4555 48.4443C47.6813 48.1827 47.7456 47.8122 47.7814 47.451C47.8843 46.4059 47.8029 45.3603 47.5387 44.3438C47.5109 44.2365 47.4808 44.128 47.4511 44.019C47.2456 43.2734 47.0334 42.5025 47.3373 41.7834C47.5659 41.2428 48.0865 40.8037 48.7659 40.5781C49.3607 40.3807 49.9851 40.3579 50.5891 40.3356L57.101 40.0959C57.6564 40.0753 58.2857 40.0522 58.8066 39.7928C58.8764 39.758 58.9628 39.7864 58.9976 39.857C59.0327 39.9274 59.004 40.013 58.9336 40.0481C58.3574 40.3351 57.6956 40.3593 57.1116 40.3807L50.5997 40.6204C50.0157 40.6421 49.4119 40.6641 48.8557 40.8487C48.2545 41.0481 47.7967 41.4291 47.6001 41.8944C47.3348 42.5223 47.5337 43.2445 47.7261 43.9434C47.7564 44.0538 47.7867 44.1633 47.8151 44.2718C48.0879 45.3211 48.1722 46.4003 48.0657 47.4791C48.0273 47.8673 47.9502 48.3078 47.6719 48.6307C47.5017 48.8278 47.2458 48.9555 46.988 48.9725C46.9686 48.9733 46.9502 48.9741 46.9316 48.9741Z" fill="#A6BEBD"/>
<path d="M52.6705 33.8132C50.0775 33.2456 47.207 34.212 45.485 36.232C43.7631 38.2521 43.2639 41.2394 44.235 43.7098C43.7861 41.6051 44.2241 39.3259 45.4211 37.5374C46.6177 35.749 48.5577 34.4748 50.6746 34.0865L52.6705 33.8132Z" fill="#FFC088"/>
<path d="M40.8403 57.5345C41.186 57.3145 41.6618 57.4018 41.9905 57.6463C42.3195 57.8907 42.5283 58.262 42.701 58.6335C43.6246 60.6213 43.7611 62.9023 43.4672 65.0742C43.1733 67.2461 42.4713 69.3391 41.773 71.4167C44.4113 73.0355 47.1801 74.4419 50.0431 75.6179C45.4489 76.6091 40.521 75.9747 36.3276 73.8526C39.0185 69.3344 39.4704 63.8879 40.2941 58.6941C40.3634 58.2581 40.4682 57.7711 40.8403 57.5345Z" fill="#172F35"/>
<path d="M44.1391 81.3637C45.353 81.6687 46.6726 81.9226 47.8242 81.4329C48.7614 81.0347 49.4355 80.2048 50.0406 79.3861C50.6591 78.5496 51.272 77.4645 50.8168 76.529C50.406 75.6849 49.3495 75.4347 48.4346 75.2255C45.5894 74.5759 42.8635 73.4085 40.4302 71.7974C40.8175 69.8522 41.629 68.0223 42.2965 66.1543C42.9639 64.2866 43.4962 62.3119 43.2895 60.3391C43.0829 58.3662 42.0075 56.3859 40.2004 55.568C39.6034 55.2977 38.9156 55.1631 38.2891 55.355C37.4039 55.6262 36.8335 56.4677 36.3794 57.2744C33.5932 62.2265 34.0364 67.4121 32.4012 73.669C32.1604 74.5901 32.4115 75.6238 32.8954 76.4436C33.4358 77.3594 34.445 77.8769 35.4136 78.316C38.2232 79.5903 41.1474 80.6114 44.1391 81.3637Z" fill="#A6BEBD"/>
<path d="M47.5208 79.4482C47.4263 80.016 47.4644 80.6612 47.862 81.0772C48.1287 81.3562 48.5122 81.4849 48.8793 81.604C49.2063 81.7099 49.549 81.8173 49.8882 81.7619C50.2411 81.7046 50.5429 81.478 50.8009 81.2305C51.4539 80.6039 51.9272 79.7922 52.1508 78.9153C52.2768 78.4212 52.318 77.8722 52.076 77.4233C51.8452 76.9956 51.3847 76.7267 50.9086 76.6299C50.1046 76.4667 49.2436 76.7559 48.6343 77.3052C48.025 77.8544 47.6554 78.6392 47.5208 79.4482Z" fill="#172F35"/>
<path d="M47.3927 81.4093C47.3409 81.4093 47.2909 81.3812 47.2659 81.332C47.1126 81.035 46.9232 81.0503 46.542 81.1098C46.2739 81.1518 45.9697 81.1993 45.6368 81.085C44.3937 80.659 43.085 80.3639 41.8194 80.0789C40.5735 79.798 39.2853 79.5077 38.0525 79.0916C35.7196 78.3043 33.4111 77.222 32.3257 74.6568C32.2951 74.5843 32.329 74.5006 32.4014 74.47C32.4737 74.4391 32.5576 74.4733 32.5882 74.5456C33.6297 77.007 35.8737 78.0554 38.1435 78.8213C39.3621 79.2326 40.643 79.5213 41.8816 79.8005C43.1548 80.0875 44.471 80.3839 45.7288 80.815C45.9952 80.9065 46.2508 80.8664 46.4975 80.8278C46.8571 80.7713 47.2647 80.7079 47.5187 81.201C47.5548 81.2711 47.5273 81.357 47.4572 81.3929C47.4369 81.4043 47.4146 81.4093 47.3927 81.4093Z" fill="#E8E8E8"/>
<path d="M33.1745 133.548C34.0174 133.103 34.9532 132.781 35.9201 132.75C36.887 132.719 37.8876 133.001 38.5843 133.63C38.8142 133.838 38.9527 134.187 38.9722 134.508C38.9778 134.601 38.8629 134.647 38.7962 134.582C38.0286 133.844 36.9833 133.371 35.8845 133.42C34.704 133.472 33.5719 133.971 32.692 134.711C32.4675 134.573 32.4442 134.255 32.5732 134.034C32.7025 133.814 32.9406 133.671 33.1745 133.548Z" fill="#172F35"/>
<path d="M33.2279 134.537C34.0708 134.092 35.0066 133.77 35.9735 133.739C36.9405 133.708 37.9411 133.991 38.6377 134.62C38.8677 134.827 39.0062 135.176 39.0256 135.498C39.0312 135.59 38.9163 135.636 38.8496 135.572C38.082 134.833 37.0367 134.36 35.9379 134.409C34.7574 134.461 33.6253 134.961 32.7457 135.701C32.5212 135.563 32.4979 135.244 32.6269 135.023C32.7557 134.803 32.994 134.66 33.2279 134.537Z" fill="#172F35"/>
<path d="M32.8575 136.286C33.5622 135.499 34.5903 135.021 35.6445 134.944C36.6985 134.867 37.7692 135.179 38.6441 135.772C38.8073 135.883 38.9717 136.013 39.0437 136.196C39.1157 136.38 39.0554 136.629 38.8713 136.7C38.0384 136.092 37.0181 135.745 35.9872 135.718C34.9563 135.692 33.9195 135.987 33.0569 136.552C32.9798 136.603 32.8775 136.656 32.803 136.601C32.7056 136.53 32.7768 136.376 32.8575 136.286Z" fill="#172F35"/>
<path d="M54.2593 86.7304H45.0057C43.094 87.0508 40.6154 86.1175 39.2138 87.318C37.0124 89.2035 36.5393 93.7593 36.8875 96.4587C36.9503 96.946 37.0699 97.4504 37.4189 97.83C38.13 98.6034 39.4399 98.5634 40.5636 98.5659C42.6332 98.5709 44.7009 98.9574 46.5975 99.6944C47.7266 100.133 48.9285 100.709 50.1215 100.435C51.0203 100.228 51.6903 99.579 52.3037 98.9597C53.7398 97.5097 55.1884 96.0232 56.0667 94.2559C56.9449 92.4889 57.1824 90.3682 56.179 88.6545C55.7268 87.8834 55.0519 87.2435 54.2593 86.7304Z" fill="#A6BEBD"/>
<path d="M52.4595 89.8651C51.8746 89.1648 51.1599 88.4209 50.2475 88.4076C49.5675 88.3978 48.9585 88.8053 48.4201 89.2207C44.6714 92.1149 41.9683 96.1406 39.6095 100.248C34.6291 108.919 30.8792 118.297 28.5073 128.011C32.7241 128.486 36.9039 129.288 40.9969 130.407C44.0523 119.822 47.1556 109.122 52.6235 99.5573C53.6898 97.6921 54.8881 95.6584 54.5182 93.5418C54.274 92.1416 53.3708 90.9563 52.4595 89.8651Z" fill="#A6BEBD"/>
<path d="M37.3306 97.6966C37.8581 98.4165 38.839 98.7149 39.72 98.5714C40.601 98.4277 41.3824 97.8993 41.9903 97.2455C42.5983 96.5917 43.0538 95.8144 43.5046 95.0438C41.8786 96.6618 39.6235 97.6306 37.3306 97.6966Z" fill="#172F35"/>
<path d="M29.9494 128.274C29.9372 128.274 29.9247 128.273 29.9125 128.27C29.8363 128.249 29.7912 128.171 29.8115 128.095C31.8956 120.293 35.1084 112.116 39.6336 103.095C40.7763 100.818 42.0728 98.4902 44.2308 97.251C44.3103 97.2054 44.3598 97.1275 44.3665 97.0383C44.3729 96.9523 44.3373 96.8723 44.2692 96.8186L43.9113 96.5366C43.7388 96.4003 43.6482 96.1881 43.6688 95.9684C43.6891 95.7546 43.8136 95.5683 44.0022 95.4707C44.7205 95.0977 45.4886 94.8413 46.2856 94.7081C45.8048 94.6041 45.3117 94.5735 44.8198 94.6161C44.6691 94.6283 44.5272 94.5413 44.4716 94.3966C44.4157 94.2523 44.4602 94.093 44.5823 94.0001C45.0987 93.6063 45.6574 93.2687 46.2445 92.9934L41.202 93.9542C40.4061 94.1058 39.5832 94.262 38.7545 94.1355C37.8054 93.9909 37.1174 93.5209 36.817 92.8123C36.7864 92.7398 36.8204 92.656 36.8927 92.6255C36.9647 92.5943 37.049 92.6282 37.0795 92.7008C37.413 93.4881 38.1978 93.7623 38.7973 93.8538C39.5782 93.9728 40.3764 93.821 41.1487 93.6742L48.4017 92.292C48.4798 92.2776 48.5538 92.3282 48.5685 92.4055C48.5833 92.4828 48.5324 92.5576 48.4551 92.5723C47.1213 92.8262 45.8418 93.3986 44.7547 94.227C44.7252 94.2493 44.7311 94.2787 44.7369 94.2943C44.7428 94.3096 44.7594 94.3369 44.795 94.3321C45.3145 94.2874 45.836 94.3199 46.3446 94.4272C46.482 94.4562 46.576 94.5738 46.5732 94.7131C46.5704 94.8524 46.4711 94.9662 46.3321 94.9893C45.5645 95.1178 44.8248 95.3647 44.1332 95.7234C44.0294 95.7774 43.9635 95.8767 43.9521 95.9951C43.9405 96.1183 43.9911 96.2368 44.0873 96.3127L44.4452 96.5947C44.5867 96.7062 44.6635 96.88 44.6504 97.0591C44.6368 97.2418 44.5328 97.4062 44.3723 97.4983C42.283 98.6977 41.0113 100.984 39.888 103.223C35.3718 112.225 32.1659 120.385 30.0865 128.168C30.0701 128.232 30.0126 128.274 29.9494 128.274Z" fill="#E8E8E8"/>
<path d="M89.0756 87.5654C88.4352 85.4961 87.7438 83.3403 86.216 81.8044C84.1686 79.7465 81.0556 79.2295 78.1556 79.0949C72.4652 78.831 66.6322 79.6683 61.5522 82.2457C59.8041 83.1326 58.1191 84.2544 56.9742 85.8454C55.5206 87.8649 55.077 90.4337 54.9115 92.9166C54.337 101.547 56.6257 110.079 57.5985 118.673C57.8886 121.236 57.9814 124.089 56.3646 126.098C55.8668 126.716 55.1794 127.466 55.5323 128.177C55.792 128.7 56.4694 128.824 57.0507 128.881C65.5479 129.715 74.3582 129.744 82.3404 126.713C86.85 125.001 91.1767 122.131 93.3049 117.802C94.7925 114.776 95.0834 111.273 94.7101 107.922C94.3369 104.57 93.335 101.326 92.3377 98.1047C91.2504 94.5918 90.163 91.0786 89.0756 87.5654Z" fill="#F46B29"/>
<path d="M90.3332 110.819C88.8245 107.876 86.1059 105.41 82.8424 104.875C79.8373 104.381 76.7087 105.591 74.4603 107.645C72.2122 109.7 70.7714 112.516 69.9079 115.436C69.0444 118.357 68.7182 121.405 68.3998 124.433C68.2624 125.742 68.2098 127.276 69.2107 128.129C70.1051 128.892 71.4366 128.748 72.5896 128.521C76.4927 127.749 80.3017 126.503 83.9056 124.817C87.0194 123.361 90.2148 121.295 91.2543 118.019C92.0051 115.652 91.4659 113.028 90.3332 110.819Z" fill="#172F35"/>
<path d="M61.7349 86.5446C61.3812 85.9414 60.568 85.8215 60.0455 86.2862C58.4503 87.7051 57.5398 89.8756 57.2915 92.0289C56.982 94.7125 57.5512 97.4139 58.1157 100.053C60.0051 99.7486 59.2048 99.8773 61.0942 99.5731C60.8834 97.746 60.7577 95.8833 61.1222 94.0815C61.4345 92.5384 62.147 91.0294 63.2894 89.9665C63.639 89.6414 63.6577 89.1025 63.3395 88.7465C62.7335 88.0683 62.1951 87.3294 61.7349 86.5446Z" fill="white"/>
<path d="M85.3565 84.4791C85.3248 84.8938 85.2503 85.3051 85.1346 85.7044C85.0431 86.0209 85.1307 86.3627 85.3735 86.5852C86.7929 87.8853 87.8724 89.5549 88.4698 91.3851C88.751 91.4727 89.0493 91.2349 89.1375 90.954C89.2257 90.6732 89.1617 90.3698 89.0972 90.0825C88.6661 88.1667 87.4842 85.8165 86.0784 84.2219C85.8346 83.9457 85.3846 84.1115 85.3565 84.4791Z" fill="white"/>
<path d="M58.2131 115.572C58.4715 111.567 57.635 107.583 56.9339 103.632C56.2325 99.6801 55.6641 95.6096 56.4506 91.674C57.237 87.7384 59.6195 83.9104 63.3348 82.3929C59.4218 83.5934 57.0237 87.0315 56.0507 91.0072C55.0776 94.9828 55.4834 99.4365 56.3001 103.447C57.1169 107.458 58.009 111.484 58.2131 115.572Z" fill="#FFC088"/>
<path d="M79.6526 80.7056C79.6331 79.5933 79.6181 78.4812 79.6042 77.3693C75.532 76.9355 71.3787 77.2764 67.4316 78.3683C67.6675 79.2418 67.9097 80.1186 68.1555 80.9968C69.1803 86.2998 74.3098 106.638 74.3098 106.638L79.4226 105.415L72.7511 81.9977C75.0773 81.8027 77.3886 81.3597 79.6526 80.7056Z" fill="#172F35"/>
<path d="M79.6523 80.4044C76.3101 81.3703 72.8548 81.8341 69.4131 81.647C71.7132 89.7184 74.5862 97.9048 79.2888 105.149C80.6682 104.831 82.0359 104.41 83.3949 103.983C81.7922 100.178 80.8642 96.0977 80.345 91.9949C79.8587 88.1528 79.7199 84.2789 79.6523 80.4044Z" fill="#FFC088"/>
<path d="M89.5248 73.8526C89.5248 74.6596 89.0462 75.314 88.4555 75.314C87.8648 75.314 87.3862 74.6596 87.3862 73.8526C87.3862 73.0455 87.8651 72.3912 88.4555 72.3912C89.0462 72.3912 89.5248 73.0455 89.5248 73.8526Z" fill="#172F35"/>
<path d="M92.7451 74.5245C92.6447 74.7631 92.397 74.9138 92.1433 74.9661C91.8897 75.0184 91.6272 74.9875 91.3702 74.9563C90.1043 74.8037 88.8382 74.651 87.5723 74.4983C87.6029 74.035 87.6335 73.5717 87.664 73.1081C88.8504 73.176 90.0368 73.2438 91.2234 73.3114C91.6058 73.3334 92.0048 73.3601 92.3344 73.5553C92.6634 73.7508 92.8936 74.1713 92.7451 74.5245Z" fill="#172F35"/>
<path d="M88.1455 72.5091C86.4608 72.6612 85.1648 72.1325 83.9482 70.9573C83.2257 70.2593 82.6706 69.3691 81.8141 68.8438C80.4091 67.982 78.6199 68.3215 76.9802 68.4917C74.5577 68.7431 72.0176 68.5751 69.7942 69.5693C68.1543 70.3024 66.8489 71.6008 65.4531 72.7316C63.0456 74.6819 60.2744 76.1777 57.3291 77.1391C57.8692 77.7367 58.2718 78.467 58.5622 79.2487C60.9238 78.7674 63.3985 78.7134 65.8183 78.8049C69.587 78.9476 73.3694 79.4073 77.1176 78.9879C78.6585 78.8155 80.21 78.4848 81.5624 77.7259C82.6547 77.1127 83.5808 76.2411 84.6451 75.5807C85.7094 74.9202 86.6716 74.5959 87.8702 74.96C88.6338 74.4196 88.693 73.1087 88.1455 72.5091Z" fill="#F46B29"/>
<path d="M65.9611 74.2614C66.1093 74.2316 66.2539 74.1771 66.3771 74.0898C66.9873 73.6571 66.8449 72.6595 67.3549 72.1128C66.3507 72.8792 65.3465 73.6459 64.3423 74.4124C64.8306 74.1671 65.4249 74.3687 65.9611 74.2614Z" fill="#FFC088"/>
<path d="M60.9595 81.2207C61.2618 81.0839 61.427 80.7452 61.3385 80.4251C61.2604 80.1425 61.2387 79.8444 61.2779 79.5538C61.3235 79.2151 61.4492 78.8864 61.4467 78.5446C61.4428 78.0488 61.1708 77.5971 60.8816 77.1942C60.6686 76.8974 60.4278 76.6004 60.0949 76.45C59.5943 76.2236 59.0123 76.3777 58.4858 76.5345C58.144 76.6363 57.7508 76.7884 57.6579 77.1327C57.6148 77.2921 57.649 77.4617 57.6952 77.6202C57.881 78.2551 58.2678 78.8294 58.7864 79.2398C59.1087 79.4949 59.5106 79.7323 59.5915 80.1353C59.6508 80.4315 59.507 80.7382 59.2959 80.9543C59.0851 81.1704 58.8131 81.3147 58.5509 81.4643C56.4137 82.6818 54.6336 84.4516 53.1266 86.3955C53.0874 86.4459 53.0496 86.4995 53.0143 86.5543C53.0095 86.561 53.0034 86.566 52.999 86.5727C52.9125 86.7 52.8421 86.8483 52.8538 87.0015C52.8741 87.2626 53.1277 87.4501 53.3822 87.5112C53.5707 87.5566 53.8127 87.5271 53.8939 87.3508C53.9501 87.229 53.9056 87.0874 53.8761 86.9564C53.8469 86.828 53.8355 86.6961 53.8374 86.5646C55.7847 84.294 58.2341 82.4546 60.9595 81.2207Z" fill="white"/>
<path d="M82.3 75.7503C82.9185 74.7642 82.8498 73.5063 82.6482 72.36C82.5022 71.5285 82.273 70.65 81.6404 70.091C81.0569 69.5757 80.2402 69.4317 79.4657 69.3549C77.0176 69.1124 74.5236 69.3391 72.1592 70.0187C70.6898 70.4412 69.145 71.1517 68.4964 72.5363C67.8145 73.9922 68.245 76.1555 69.4328 77.2389C70.6205 78.3224 72.2455 78.2473 73.8528 78.2846C75.7308 78.328 77.769 78.0329 79.5616 77.4723C81.4543 76.8802 81.7244 76.668 82.3 75.7503Z" fill="white"/>
<path d="M80.1343 69.7904C80.9138 70.5777 81.3668 71.6408 81.5943 72.7251C81.8218 73.8094 81.8398 74.9252 81.8571 76.0328C82.5148 74.4571 82.5162 72.6192 81.8604 71.0427C81.71 70.6809 81.5198 70.3241 81.2239 70.0674C80.9277 69.8107 80.5072 69.6703 80.1343 69.7904Z" fill="#172F35"/>
<path d="M88.3307 76.0356C88.5226 76.1038 88.7325 76.0459 88.9361 76.0559C90.5112 76.1338 91.8077 76.0039 93.0895 76.6091C93.0083 76.6483 92.9638 76.9227 93.0146 76.9973C93.1601 77.163 93.4713 77.0551 93.5378 76.8449C93.6042 76.6344 93.4774 76.4019 93.2961 76.2762C93.1148 76.1505 92.7716 75.9842 92.555 75.9438C91.2868 75.7083 90.1375 75.596 88.8691 75.3604C88.5351 75.2553 88.4291 74.8226 88.4917 74.478C88.554 74.1334 88.7261 73.8084 88.7303 73.4582C88.737 72.8926 88.2103 72.4004 87.658 72.3734C87.5203 72.3667 87.4166 72.5021 87.4655 72.6309C87.7394 73.3512 87.6655 74.198 87.2761 74.8626C87.2027 74.9878 87.2414 75.1485 87.3701 75.2155C87.7077 75.3916 87.9372 75.8957 88.3307 76.0356Z" fill="white"/>
<path d="M89.4975 66.4488C91.1364 65.7755 91.9192 63.9011 91.2459 62.2622C90.5726 60.6232 88.6982 59.8405 87.0593 60.5137C85.4204 61.187 84.6376 63.0614 85.3109 64.7003C85.9842 66.3392 87.8586 67.122 89.4975 66.4488Z" fill="white"/>
<path d="M88.0556 73.3578C87.9179 73.3578 87.7969 73.2582 87.7744 73.1178L87.1381 69.158C87.0625 68.6841 87.1031 68.1936 87.2563 67.7394L88.4705 64.1375C88.5205 63.9885 88.6829 63.9081 88.8317 63.9584C88.9811 64.0088 89.0612 64.1703 89.0108 64.3197L87.7966 67.9216C87.6729 68.2884 87.6401 68.6847 87.7015 69.0676L88.3378 73.0274C88.3629 73.1829 88.2572 73.3292 88.1014 73.3542C88.0856 73.3567 88.0706 73.3578 88.0556 73.3578Z" fill="white"/>
<path d="M52.0621 72.1061C54.3063 72.1061 56.1256 70.2868 56.1256 68.0426C56.1256 65.7983 54.3063 63.979 52.0621 63.979C49.8178 63.979 47.9985 65.7983 47.9985 68.0426C47.9985 70.2868 49.8178 72.1061 52.0621 72.1061Z" fill="white"/>
<path d="M59.3567 77.5001C59.2277 77.5001 59.1109 77.4122 59.0798 77.2812L57.8383 72.075C57.7096 71.5355 57.3567 71.0738 56.87 70.8085L52.5195 68.4355C52.381 68.3601 52.3301 68.1869 52.4055 68.0487C52.4808 67.9105 52.6549 67.8593 52.7923 67.9349L57.1428 70.3079C57.7713 70.6505 58.2268 71.2465 58.3929 71.9429L59.6343 77.1491C59.6707 77.3023 59.5764 77.4561 59.4232 77.4925C59.4012 77.4976 59.3787 77.5001 59.3567 77.5001Z" fill="white"/>
<path d="M47.9268 80.7046C48.1456 81.241 48.3645 81.7775 48.5833 82.3139C51.6697 81.0116 54.8466 79.924 58.0837 79.0613C57.8904 78.4609 57.6001 77.8922 57.2274 77.3835C54.1269 78.4904 51.0267 79.5975 47.9268 80.7046Z" fill="#172F35"/>
<path d="M56.1969 77.5459C56.1718 77.1719 56.4519 76.8179 56.8065 76.6961C57.1608 76.5743 57.564 76.6588 57.8821 76.8568C58.2003 77.0551 58.4422 77.356 58.636 77.6769C58.8766 78.0754 59.0537 78.5212 59.0796 78.9859C59.0913 79.1984 59.0115 79.4512 58.8905 79.6954C58.6377 80.2062 57.96 80.34 57.5423 79.952C56.8548 79.3149 56.2428 78.2276 56.1969 77.5459Z" fill="#172F35"/>
<path d="M49.163 81.3892C49.5426 82.1128 49.3769 82.9477 48.7929 83.2539C48.2089 83.5603 47.4277 83.2222 47.0481 82.4988C46.6685 81.7755 46.8343 80.9404 47.4183 80.6342C48.0023 80.3277 48.7834 80.6656 49.163 81.3892Z" fill="#172F35"/>
<path d="M85.3106 109.701C84.7597 109.773 82.655 110.049 82.1041 110.121C78.04 110.654 75.6398 117.912 76.7427 126.333C77.8456 134.755 82.0343 141.15 86.0981 140.618C86.649 140.546 88.7537 140.27 89.3046 140.198C93.3687 139.666 95.7689 132.408 94.666 123.986C93.5633 115.564 89.3747 109.169 85.3106 109.701Z" fill="#172F35"/>
<path d="M85.1754 125.229C85.9254 130.955 85.1315 135.781 83.4026 136.008C81.6734 136.234 79.6636 131.776 78.9135 126.049C78.1635 120.322 78.9575 115.497 80.6864 115.27C82.4159 115.044 84.4257 119.502 85.1754 125.229Z" fill="#A6BEBD"/>
<path d="M91.6499 110.292C90.4285 108.598 88.8523 107.117 86.9471 106.262C83.0212 104.498 79.3353 105.977 77.4554 109.732C76.1425 112.354 75.017 115.848 75.1864 118.802C75.3755 122.104 75.4483 125.826 76.1706 129.055C82.4358 128.321 91.4261 126.84 96.9212 124.789C96.142 119.844 94.5777 114.354 91.6499 110.292Z" fill="#F46B29"/>
<path d="M80.1618 107.373C79.0322 107.981 78.1512 109.037 77.7549 110.257C78.2607 109.661 79.1615 109.5 79.904 109.744C80.6465 109.988 81.2372 110.575 81.6413 111.243C82.0454 111.912 82.2845 112.665 82.5203 113.41C83.675 117.058 84.8296 120.706 85.9843 124.354C86.1331 124.824 86.2955 125.316 86.6573 125.651C87.335 126.278 88.4001 126.114 89.3006 125.91C88.8367 126.009 88.3551 125.747 88.0595 125.377C87.7638 125.006 87.6164 124.541 87.4766 124.088C85.9632 119.184 84.6111 114.231 83.4228 109.239C83.2339 108.445 82.9803 107.557 82.26 107.173C81.6137 106.829 80.8067 107.026 80.1618 107.373Z" fill="#FFC088"/>
<path d="M76.7541 116.082C76.4101 120.36 77.8991 124.539 78.9119 128.71C79.1135 129.54 79.3057 130.396 79.7773 131.109C80.2492 131.822 81.0763 132.371 81.9226 132.25C82.8511 132.118 83.5174 131.217 83.6857 130.295C83.8539 129.372 83.6334 128.428 83.414 127.516C82.2774 122.79 81.1408 118.065 80.0042 113.339C79.3758 112.697 78.2172 112.919 77.6107 113.581C77.0041 114.244 76.8259 115.187 76.7541 116.082Z" fill="#172F35"/>
<path d="M81.0055 127.355C81.0055 129.245 80.4788 130.777 79.8292 130.777C79.1795 130.777 78.6528 129.245 78.6528 127.355C78.6528 125.466 79.1795 123.934 79.8292 123.934C80.4791 123.934 81.0055 125.466 81.0055 127.355Z" fill="#A6BEBD"/>
<path d="M82.0262 131.136C82.1891 131.335 82.4939 131.375 82.7309 131.276C82.9678 131.178 83.1422 130.966 83.2579 130.737C83.6238 130.013 83.4675 129.145 83.2851 128.354C82.2626 123.916 80.6857 119.608 79.9032 115.121C79.8381 114.748 79.7722 114.359 79.5469 114.055C79.3217 113.75 78.882 113.568 78.5536 113.756C78.328 113.885 78.2126 114.154 78.1993 114.414C78.1862 114.673 78.2588 114.929 78.3292 115.179C79.0728 117.818 79.6501 120.505 80.057 123.216C80.6298 123.365 80.9975 123.915 81.2564 124.447C82.1224 126.227 82.3755 128.298 81.9628 130.235C81.898 130.54 81.8276 130.895 82.0262 131.136Z" fill="#A6BEBD"/>
<path d="M79.1979 123.572C78.8083 124.054 78.5205 124.618 78.3583 125.216C78.306 124.57 78.6442 123.908 79.1979 123.572Z" fill="#A6BEBD"/>
<path d="M56.6247 80.3995C56.4259 79.8133 56.083 78.3043 55.5315 78.0232C54.8444 77.6725 54.041 77.6339 53.2856 77.591C52.4844 77.5457 51.6668 77.442 50.874 77.6191C50.2778 77.7526 49.8022 78.014 49.4006 78.4745C48.9729 78.9651 48.7343 79.345 48.7591 79.9954C48.7838 80.6459 49.8559 81.7789 50.5064 81.8036C50.3142 81.8951 50.2588 82.1582 50.3309 82.3587C50.4029 82.5589 50.5664 82.7102 50.7241 82.8532C51.0751 83.171 51.4263 83.4889 51.7773 83.8065C52.0348 84.0395 52.3104 84.2823 52.6516 84.3485C53.0862 84.433 53.519 84.2122 53.8869 83.9658C54.5457 83.5242 55.2854 83.2139 55.7693 82.5856C56.3489 81.8334 56.9298 81.2986 56.6247 80.3995Z" fill="#FFC088"/>
</svg>
