<svg width="11" height="18" viewBox="0 0 11 18" fill="none" xmlns="http://www.w3.org/2000/svg">
<path d="M0.70508 9.7959L8.20508 17.2959C8.41642 17.5072 8.70307 17.626 9.00196 17.626C9.30084 17.626 9.58749 17.5072 9.79883 17.2959C10.0102 17.0846 10.1289 16.7979 10.1289 16.499C10.1289 16.2001 10.0102 15.9135 9.79883 15.7021L3.09477 8.99996L9.79695 2.2959C9.9016 2.19125 9.98461 2.06702 10.0412 1.93029C10.0979 1.79356 10.127 1.64702 10.127 1.49902C10.127 1.35103 10.0979 1.20448 10.0412 1.06776C9.98461 0.931028 9.9016 0.806794 9.79695 0.702147C9.69231 0.5975 9.56807 0.514489 9.43135 0.457855C9.29462 0.40122 9.14807 0.37207 9.00008 0.37207C8.85209 0.37207 8.70554 0.40122 8.56881 0.457855C8.43209 0.514489 8.30785 0.5975 8.2032 0.702147L0.703206 8.20215C0.598449 8.30679 0.515378 8.43108 0.458757 8.56789C0.402137 8.7047 0.373081 8.85135 0.373256 8.99941C0.37343 9.14748 0.402831 9.29405 0.459773 9.43073C0.516715 9.56741 0.600077 9.6915 0.70508 9.7959Z" fill="black"/>
</svg>
