<svg width="92" height="92" viewBox="0 0 92 92" fill="none" xmlns="http://www.w3.org/2000/svg">
<rect width="92" height="92" rx="46" fill="#E1F9EB"/>
<path d="M46 16C40.0666 16 34.2664 17.7595 29.3329 21.0559C24.3994 24.3524 20.5543 29.0377 18.2836 34.5195C16.013 40.0013 15.4189 46.0333 16.5765 51.8527C17.734 57.6721 20.5912 63.0176 24.7868 67.2132C28.9824 71.4088 34.3279 74.266 40.1473 75.4235C45.9667 76.5811 51.9987 75.987 57.4805 73.7164C62.9623 71.4457 67.6476 67.6006 70.9441 62.6671C74.2405 57.7336 76 51.9334 76 46C75.9916 38.0461 72.8282 30.4203 67.2039 24.7961C61.5797 19.1718 53.9539 16.0084 46 16ZM59.1712 40.7096L43.0173 56.8635C42.803 57.078 42.5485 57.2482 42.2683 57.3644C41.9882 57.4805 41.6879 57.5403 41.3846 57.5403C41.0814 57.5403 40.7811 57.4805 40.5009 57.3644C40.2208 57.2482 39.9663 57.078 39.7519 56.8635L32.8289 49.9404C32.3958 49.5074 32.1526 48.9201 32.1526 48.3077C32.1526 47.6953 32.3958 47.108 32.8289 46.675C33.2619 46.242 33.8492 45.9987 34.4615 45.9987C35.0739 45.9987 35.6612 46.242 36.0942 46.675L41.3846 51.9683L55.9058 37.4442C56.1202 37.2298 56.3747 37.0597 56.6549 36.9437C56.935 36.8277 57.2352 36.7679 57.5385 36.7679C57.8417 36.7679 58.1419 36.8277 58.4221 36.9437C58.7022 37.0597 58.9567 37.2298 59.1712 37.4442C59.3856 37.6586 59.5556 37.9132 59.6717 38.1933C59.7877 38.4734 59.8474 38.7737 59.8474 39.0769C59.8474 39.3801 59.7877 39.6804 59.6717 39.9605C59.5556 40.2407 59.3856 40.4952 59.1712 40.7096Z" fill="#27AE60"/>
</svg>
