<svg width="16" height="16" viewBox="0 0 16 16" fill="none" xmlns="http://www.w3.org/2000/svg">
<path d="M8.10602 4.37262C10.1169 4.37262 11.7767 6.03243 11.7767 8.04335C11.7767 10.0862 10.1169 11.7141 8.10602 11.7141C6.06318 11.7141 4.43529 10.0862 4.43529 8.04335C4.43529 6.03243 6.06318 4.37262 8.10602 4.37262ZM8.10602 10.4373C9.41471 10.4373 10.4681 9.38397 10.4681 8.04335C10.4681 6.73466 9.41471 5.68132 8.10602 5.68132C6.76541 5.68132 5.71207 6.73466 5.71207 8.04335C5.71207 9.38397 6.79733 10.4373 8.10602 10.4373ZM12.7663 4.24495C12.7663 4.72374 12.3832 5.10677 11.9044 5.10677C11.4256 5.10677 11.0426 4.72374 11.0426 4.24495C11.0426 3.76616 11.4256 3.38312 11.9044 3.38312C12.3832 3.38312 12.7663 3.76616 12.7663 4.24495ZM15.1921 5.10677C15.256 6.28779 15.256 9.83084 15.1921 11.0119C15.1283 12.161 14.8729 13.1505 14.043 14.0123C13.2131 14.8422 12.1917 15.0975 11.0426 15.1614C9.86159 15.2252 6.31853 15.2252 5.13752 15.1614C3.98842 15.0975 2.99892 14.8422 2.1371 14.0123C1.30719 13.1505 1.05184 12.161 0.987998 11.0119C0.924159 9.83084 0.924159 6.28779 0.987998 5.10677C1.05184 3.95767 1.30719 2.93625 2.1371 2.10635C2.99892 1.27644 3.98842 1.02109 5.13752 0.957251C6.31853 0.893412 9.86159 0.893412 11.0426 0.957251C12.1917 1.02109 13.2131 1.27644 14.043 2.10635C14.8729 2.93625 15.1283 3.95767 15.1921 5.10677ZM13.66 12.2567C14.043 11.331 13.9473 9.09669 13.9473 8.04335C13.9473 7.02193 14.043 4.78758 13.66 3.83C13.4046 3.22353 12.9258 2.71282 12.3194 2.48938C11.3618 2.10635 9.12744 2.20211 8.10602 2.20211C7.05268 2.20211 4.81832 2.10635 3.89266 2.48938C3.25427 2.74474 2.77548 3.22353 2.52013 3.83C2.1371 4.78758 2.23285 7.02193 2.23285 8.04335C2.23285 9.09669 2.1371 11.331 2.52013 12.2567C2.77548 12.8951 3.25427 13.3739 3.89266 13.6292C4.81832 14.0123 7.05268 13.9165 8.10602 13.9165C9.12744 13.9165 11.3618 14.0123 12.3194 13.6292C12.9258 13.3739 13.4366 12.8951 13.66 12.2567Z" fill="white"/>
</svg>
