<svg width="18" height="20" viewBox="0 0 18 20" fill="none" xmlns="http://www.w3.org/2000/svg">
<path d="M17.25 1.74996V19C17.25 19.1989 17.171 19.3896 17.0303 19.5303C16.8897 19.6709 16.6989 19.75 16.5 19.75C16.3011 19.75 16.1103 19.6709 15.9697 19.5303C15.829 19.3896 15.75 19.1989 15.75 19V14.5H11.25C11.0511 14.5 10.8603 14.4209 10.7197 14.2803C10.579 14.1396 10.5 13.9489 10.5 13.75C10.5348 11.9534 10.7617 10.1657 11.1769 8.41746C12.0938 4.62152 13.8319 2.07715 16.2047 1.0609C16.3187 1.01205 16.4431 0.99225 16.5667 1.00328C16.6903 1.01432 16.8092 1.05584 16.9128 1.12412C17.0164 1.19241 17.1014 1.28532 17.1603 1.39455C17.2191 1.50377 17.2499 1.62589 17.25 1.74996ZM8.23969 1.62715C8.225 1.52867 8.19085 1.4341 8.13923 1.34896C8.0876 1.26381 8.01954 1.1898 7.93902 1.13124C7.85849 1.07267 7.76711 1.03073 7.67021 1.00786C7.5733 0.98498 7.47281 0.981628 7.37459 0.997998C7.27638 1.01437 7.18241 1.05013 7.09816 1.1032C7.01391 1.15627 6.94107 1.22558 6.88389 1.30709C6.82671 1.38861 6.78634 1.48069 6.76512 1.57797C6.7439 1.67526 6.74227 1.77579 6.76031 1.87371L7.48969 6.24996H5.25V1.74996C5.25 1.55105 5.17098 1.36028 5.03033 1.21963C4.88968 1.07898 4.69891 0.999961 4.5 0.999961C4.30109 0.999961 4.11032 1.07898 3.96967 1.21963C3.82902 1.36028 3.75 1.55105 3.75 1.74996V6.24996H1.51031L2.23969 1.87371C2.25773 1.77579 2.2561 1.67526 2.23488 1.57797C2.21366 1.48069 2.17329 1.38861 2.11611 1.30709C2.05893 1.22558 1.98609 1.15627 1.90184 1.1032C1.81759 1.05013 1.72362 1.01437 1.62541 0.997998C1.52719 0.981628 1.4267 0.98498 1.32979 1.00786C1.23289 1.03073 1.14151 1.07267 1.06098 1.13124C0.980455 1.1898 0.912396 1.26381 0.860775 1.34896C0.809153 1.4341 0.775002 1.52867 0.760313 1.62715L0.0103126 6.12715C0.00358173 6.16774 0.000133007 6.20881 0 6.24996C0.00149857 7.31291 0.378673 8.34111 1.06488 9.15289C1.75108 9.96467 2.70214 10.5078 3.75 10.6862V19C3.75 19.1989 3.82902 19.3896 3.96967 19.5303C4.11032 19.6709 4.30109 19.75 4.5 19.75C4.69891 19.75 4.88968 19.6709 5.03033 19.5303C5.17098 19.3896 5.25 19.1989 5.25 19V10.6862C6.29786 10.5078 7.24892 9.96467 7.93512 9.15289C8.62133 8.34111 8.9985 7.31291 9 6.24996C8.99987 6.20881 8.99642 6.16774 8.98969 6.12715L8.23969 1.62715Z" fill="black"/>
</svg>
