<svg width="18" height="18" viewBox="0 0 18 18" fill="none" xmlns="http://www.w3.org/2000/svg">
<path d="M8.25 9V1.5C8.25 1.30109 8.32902 1.11032 8.46967 0.96967C8.61032 0.829018 8.80109 0.75 9 0.75C9.19891 0.75 9.38968 0.829018 9.53033 0.96967C9.67098 1.11032 9.75 1.30109 9.75 1.5V9C9.75 9.19891 9.67098 9.38968 9.53033 9.53033C9.38968 9.67098 9.19891 9.75 9 9.75C8.80109 9.75 8.61032 9.67098 8.46967 9.53033C8.32902 9.38968 8.25 9.19891 8.25 9ZM13.9097 1.62187C13.7431 1.5166 13.5418 1.4811 13.3493 1.52307C13.1567 1.56503 12.9885 1.68108 12.8808 1.84613C12.7731 2.01118 12.7348 2.21197 12.774 2.40508C12.8132 2.5982 12.9268 2.76812 13.0903 2.87813C15.2569 4.29094 16.5 6.52219 16.5 9C16.5 10.9891 15.7098 12.8968 14.3033 14.3033C12.8968 15.7098 10.9891 16.5 9 16.5C7.01088 16.5 5.10322 15.7098 3.6967 14.3033C2.29018 12.8968 1.5 10.9891 1.5 9C1.5 6.52219 2.74313 4.29094 4.90969 2.87813C5.07318 2.76812 5.18681 2.5982 5.22602 2.40508C5.26522 2.21197 5.22685 2.01118 5.1192 1.84613C5.01155 1.68108 4.84327 1.56503 4.65073 1.52307C4.4582 1.4811 4.25689 1.5166 4.09031 1.62187C1.49062 3.31687 0 6.00562 0 9C3.55683e-08 11.3869 0.948211 13.6761 2.63604 15.364C4.32387 17.0518 6.61305 18 9 18C11.3869 18 13.6761 17.0518 15.364 15.364C17.0518 13.6761 18 11.3869 18 9C18 6.00562 16.5094 3.31687 13.9097 1.62187Z" fill="#8B8B8B"/>
</svg>
