<svg width="40" height="41" viewBox="0 0 40 41" fill="none" xmlns="http://www.w3.org/2000/svg">
<path d="M13.75 10.5C13.7499 9.31738 14.0854 8.15903 14.7174 7.15948C15.3495 6.15993 16.2521 5.36021 17.3205 4.85321C18.3889 4.3462 19.5793 4.15273 20.7532 4.29525C21.9272 4.43778 23.0367 4.91046 23.9527 5.65838C24.8688 6.4063 25.5539 7.39878 25.9284 8.52052C26.3028 9.64226 26.3514 10.8472 26.0684 11.9955C25.7853 13.1437 25.1824 14.1881 24.3295 15.0073C23.4765 15.8265 22.4087 16.3869 21.25 16.6234V28C21.25 28.3315 21.1183 28.6495 20.8839 28.8839C20.6495 29.1183 20.3315 29.25 20 29.25C19.6685 29.25 19.3505 29.1183 19.1161 28.8839C18.8817 28.6495 18.75 28.3315 18.75 28V16.6234C17.3392 16.334 16.0715 15.5667 15.1606 14.4512C14.2498 13.3357 13.7515 11.9401 13.75 10.5ZM34.0625 23.4047C32.1469 22.3203 29.5125 21.4875 26.4422 20.9953C26.2798 20.9697 26.1139 20.9762 25.954 21.0147C25.7942 21.0532 25.6435 21.1227 25.5105 21.2194C25.3775 21.3161 25.2649 21.4381 25.179 21.5783C25.0932 21.7185 25.0358 21.8743 25.0102 22.0367C24.9845 22.1991 24.9911 22.365 25.0296 22.5248C25.068 22.6847 25.1376 22.8354 25.2343 22.9684C25.331 23.1014 25.4529 23.214 25.5932 23.2999C25.7334 23.3857 25.8892 23.4431 26.0516 23.4687C28.7922 23.9094 31.2078 24.6609 32.8359 25.5859C34.2188 26.3594 35 27.2406 35 28C35 30.0875 29.2938 33 20 33C10.7063 33 5 30.0875 5 28C5 27.2406 5.78125 26.3594 7.16406 25.5797C8.79844 24.6547 11.2078 23.9031 13.9484 23.4625C14.1143 23.4408 14.2741 23.3861 14.4184 23.3015C14.5628 23.217 14.6886 23.1043 14.7886 22.9702C14.8886 22.8361 14.9607 22.6833 15.0005 22.5209C15.0404 22.3584 15.0472 22.1896 15.0207 22.0245C14.9941 21.8593 14.9347 21.7012 14.8459 21.5595C14.7571 21.4177 14.6407 21.2952 14.5037 21.1992C14.3667 21.1033 14.2119 21.0358 14.0483 21.0007C13.8848 20.9657 13.7158 20.9639 13.5516 20.9953C10.4813 21.4875 7.84688 22.3203 5.93125 23.4047C3.09531 25.0109 2.5 26.7906 2.5 28C2.5 32.8719 11.5172 35.5 20 35.5C28.4828 35.5 37.5 32.8719 37.5 28C37.5 26.7906 36.9047 25.0109 34.0625 23.4047Z" fill="black"/>
</svg>
