<svg width="24" height="31" viewBox="0 0 24 31" fill="none" xmlns="http://www.w3.org/2000/svg">
<path fill-rule="evenodd" clip-rule="evenodd" d="M1.23495 5.52123C6.15322 4.1695 7.79536 3.8585 11.1599 1.18692C11.5125 0.906529 12.0035 0.921221 12.3377 1.19426C18.1731 5.93637 23.0256 4.48418 23.0243 6.44698H23.028V17.3085C23.028 24.6867 18.0214 26.6482 12.2326 30.1792C11.9168 30.3714 11.5323 30.3555 11.2397 30.1694C5.58667 26.6469 0.459961 24.8041 0.459961 17.3084V6.4469C0.459961 5.98406 0.79415 5.5996 1.23495 5.52123ZM15.1648 12.3324L10.5377 16.9215L9.15044 15.2796C8.3558 14.3405 6.92326 15.5514 7.7179 16.4918L9.76019 18.9087C10.114 19.3275 10.7495 19.3532 11.1376 18.9675L16.4869 13.6621C17.3623 12.7928 16.0414 11.4619 15.1648 12.3324ZM2.44955 7.12984L2.34058 7.15922V17.3083C2.34058 23.3653 6.6749 25.2215 11.7439 28.2814C16.813 25.2216 21.1473 23.3653 21.1473 17.3083V7.15922C16.4212 5.8577 14.7916 5.4365 11.7439 3.10888C8.74172 5.40095 7.12678 5.84549 2.44955 7.12984Z" fill="#27AE60"/>
</svg>
