<svg width="22" height="22" viewBox="0 0 22 22" fill="none" xmlns="http://www.w3.org/2000/svg">
<path d="M20.1328 9.86992L16.2656 13.2069L17.4438 18.1973C17.5088 18.4682 17.4921 18.7523 17.3957 19.0137C17.2993 19.2751 17.1276 19.502 16.9023 19.6659C16.677 19.8298 16.4082 19.9232 16.1298 19.9344C15.8515 19.9455 15.576 19.874 15.3383 19.7287L10.9985 17.0577L6.65606 19.7287C6.41838 19.8731 6.14327 19.944 5.86538 19.9324C5.58749 19.9209 5.31924 19.8273 5.09441 19.6636C4.86957 19.4998 4.69821 19.2732 4.6019 19.0123C4.50559 18.7514 4.48863 18.4678 4.55317 18.1973L5.73567 13.2069L1.86848 9.86992C1.65819 9.68817 1.5061 9.4485 1.43122 9.18083C1.35633 8.91316 1.36196 8.62936 1.4474 8.36487C1.53284 8.10038 1.69431 7.86693 1.91165 7.69366C2.12898 7.52039 2.39254 7.41499 2.66942 7.39062L7.73973 6.98156L9.69567 2.24812C9.80154 1.99015 9.98173 1.76949 10.2133 1.61419C10.4449 1.4589 10.7175 1.37598 10.9963 1.37598C11.2752 1.37598 11.5477 1.4589 11.7793 1.61419C12.0109 1.76949 12.1911 1.99015 12.297 2.24812L14.2521 6.98156L19.3224 7.39062C19.5998 7.41409 19.8641 7.5189 20.0823 7.69192C20.3004 7.86495 20.4626 8.0985 20.5486 8.36331C20.6346 8.62812 20.6405 8.91241 20.5656 9.18057C20.4907 9.44873 20.3384 9.68882 20.1276 9.87078L20.1328 9.86992Z" fill="#FACC15"/>
</svg>
