<svg width="14" height="15" viewBox="0 0 14 15" fill="none" xmlns="http://www.w3.org/2000/svg">
<path d="M13.1268 14.317C13.0757 14.4101 13.0005 14.4878 12.9092 14.542C12.8178 14.5962 12.7135 14.6248 12.6073 14.625H9.0448C8.94487 14.625 8.84657 14.5997 8.75899 14.5516C8.67142 14.5035 8.59741 14.434 8.54382 14.3496L5.5387 9.62711L1.17167 14.4305C1.06522 14.5449 0.917975 14.6127 0.761872 14.6192C0.605769 14.6257 0.453386 14.5705 0.337761 14.4654C0.222135 14.3603 0.152587 14.2139 0.144194 14.0579C0.135801 13.9019 0.189239 13.7488 0.292924 13.632L4.87742 8.58508L0.231322 1.28789C0.174101 1.19812 0.142068 1.09461 0.138579 0.988211C0.13509 0.881809 0.160272 0.776427 0.211489 0.683098C0.262706 0.58977 0.338073 0.511928 0.4297 0.457724C0.521326 0.40352 0.62584 0.374948 0.732299 0.375H4.2948C4.39473 0.375031 4.49303 0.400283 4.58061 0.448416C4.66818 0.496548 4.74219 0.566005 4.79578 0.650352L7.80089 5.37289L12.1679 0.569453C12.2744 0.455096 12.4216 0.387308 12.5777 0.380786C12.7338 0.374264 12.8862 0.429533 13.0018 0.534612C13.1175 0.63969 13.187 0.786108 13.1954 0.942122C13.2038 1.09814 13.1504 1.25117 13.0467 1.36805L8.46218 6.41121L13.1083 13.7129C13.1652 13.8027 13.1969 13.9061 13.2002 14.0124C13.2034 14.1187 13.1781 14.2239 13.1268 14.317Z" fill="white"/>
</svg>
