<svg width="16" height="17" viewBox="0 0 16 17" fill="none" xmlns="http://www.w3.org/2000/svg">
<path d="M11.5306 9.03063L6.5306 14.0306C6.3897 14.1715 6.19861 14.2507 5.99935 14.2507C5.80009 14.2507 5.60899 14.1715 5.4681 14.0306C5.3272 13.8897 5.24805 13.6986 5.24805 13.4994C5.24805 13.3001 5.3272 13.109 5.4681 12.9681L9.93747 8.5L5.46935 4.03063C5.39958 3.96086 5.34424 3.87804 5.30649 3.78689C5.26873 3.69574 5.2493 3.59804 5.2493 3.49938C5.2493 3.40072 5.26873 3.30302 5.30649 3.21187C5.34424 3.12072 5.39958 3.03789 5.46935 2.96813C5.53911 2.89836 5.62194 2.84302 5.71309 2.80527C5.80424 2.76751 5.90194 2.74808 6.0006 2.74808C6.09926 2.74808 6.19696 2.76751 6.28811 2.80527C6.37926 2.84302 6.46208 2.89836 6.53185 2.96813L11.5318 7.96813C11.6017 8.03789 11.6571 8.12075 11.6948 8.21196C11.7326 8.30316 11.7519 8.40093 11.7518 8.49964C11.7517 8.59835 11.7321 8.69606 11.6941 8.78718C11.6562 8.8783 11.6006 8.96103 11.5306 9.03063Z" fill="#E46A15"/>
</svg>
