<svg width="24" height="24" viewBox="0 0 24 24" fill="none" xmlns="http://www.w3.org/2000/svg">
<path d="M17.2949 12.7959L9.79492 20.2959C9.58358 20.5072 9.29693 20.626 8.99804 20.626C8.69916 20.626 8.41251 20.5072 8.20117 20.2959C7.98983 20.0846 7.87109 19.7979 7.87109 19.499C7.87109 19.2001 7.98983 18.9135 8.20117 18.7021L14.9052 12L8.20305 5.2959C8.0984 5.19125 8.01539 5.06702 7.95875 4.93029C7.90212 4.79356 7.87297 4.64702 7.87297 4.49902C7.87297 4.35103 7.90212 4.20448 7.95875 4.06776C8.01539 3.93103 8.0984 3.80679 8.20305 3.70215C8.30769 3.5975 8.43193 3.51449 8.56865 3.45785C8.70538 3.40122 8.85193 3.37207 8.99992 3.37207C9.14791 3.37207 9.29446 3.40122 9.43119 3.45785C9.56791 3.51449 9.69215 3.5975 9.7968 3.70215L17.2968 11.2021C17.4016 11.3068 17.4846 11.4311 17.5412 11.5679C17.5979 11.7047 17.6269 11.8513 17.6267 11.9994C17.6266 12.1475 17.5972 12.2941 17.5402 12.4307C17.4833 12.5674 17.3999 12.6915 17.2949 12.7959Z" fill="black"/>
</svg>
