<svg width="24" height="24" viewBox="0 0 24 24" fill="none" xmlns="http://www.w3.org/2000/svg">
<g clip-path="url(#clip0_8_1941)">
<path d="M23.4319 11.2725L20.8959 10.6387C20.6079 8.7434 19.7213 6.98983 18.3657 5.63424C17.0101 4.27865 15.2566 3.39207 13.3612 3.10405L12.7275 0.572798C12.6868 0.410628 12.5932 0.266687 12.4614 0.163837C12.3296 0.0609879 12.1672 0.00512695 12 0.00512695C11.8328 0.00512695 11.6704 0.0609879 11.5386 0.163837C11.4068 0.266687 11.3131 0.410628 11.2725 0.572798L10.6387 3.10874C8.7434 3.39676 6.98983 4.28333 5.63424 5.63893C4.27865 6.99452 3.39207 8.74809 3.10405 10.6434L0.572798 11.2772C0.410628 11.3178 0.266687 11.4115 0.163837 11.5433C0.0609879 11.6751 0.00512695 11.8375 0.00512695 12.0047C0.00512695 12.1719 0.0609879 12.3343 0.163837 12.4661C0.266687 12.5979 0.410628 12.6915 0.572798 12.7322L3.10874 13.3659C3.39676 15.2613 4.28333 17.0148 5.63893 18.3704C6.99452 19.726 8.74809 20.6126 10.6434 20.9006L11.2772 23.4365C11.3178 23.5987 11.4115 23.7427 11.5433 23.8455C11.6751 23.9484 11.8375 24.0042 12.0047 24.0042C12.1719 24.0042 12.3343 23.9484 12.4661 23.8455C12.5979 23.7427 12.6915 23.5987 12.7322 23.4365L13.3659 20.9006C15.2613 20.6126 17.0148 19.726 18.3704 18.3704C19.726 17.0148 20.6126 15.2613 20.9006 13.3659L23.4365 12.7322C23.5987 12.6915 23.7427 12.5979 23.8455 12.4661C23.9484 12.3343 24.0042 12.1719 24.0042 12.0047C24.0042 11.8375 23.9484 11.6751 23.8455 11.5433C23.7427 11.4115 23.5987 11.3178 23.4365 11.2772L23.4319 11.2725ZM14.4797 13.4194L13.0603 12L14.4797 10.5806L20.1562 12L14.4797 13.4194ZM9.5203 13.4194L3.84374 12L9.52217 10.5806L10.9397 12L9.5203 13.4194ZM19.2909 10.2375L14.8687 9.13124L13.7625 4.70905C15.1038 5.03189 16.3299 5.71898 17.3054 6.69453C18.281 7.67008 18.9681 8.89616 19.2909 10.2375ZM13.4194 9.5203L12 10.9397L10.5806 9.5203L12 3.84374L13.4194 9.5203ZM10.2375 4.70905L9.13124 9.13124L4.70905 10.2375C5.03189 8.89616 5.71898 7.67008 6.69453 6.69453C7.67008 5.71898 8.89616 5.03189 10.2375 4.70905ZM4.70624 13.7625L9.13124 14.8687L10.2375 19.2909C8.89616 18.9681 7.67008 18.281 6.69453 17.3054C5.71898 16.3299 5.03189 15.1038 4.70905 13.7625H4.70624ZM10.5778 14.4797L12 13.0603L13.4194 14.4797L12 20.1562L10.5778 14.4797ZM13.7597 19.2909L14.8659 14.8687L19.2881 13.7625C18.9655 15.1035 18.2788 16.3293 17.3038 17.3048C16.3288 18.2803 15.1033 18.9676 13.7625 19.2909H13.7597Z" fill="#E46A15"/>
</g>
<defs>
<clipPath id="clip0_8_1941">
<rect width="24" height="24" fill="white"/>
</clipPath>
</defs>
</svg>
