<svg width="16" height="16" viewBox="0 0 16 16" fill="none" xmlns="http://www.w3.org/2000/svg">
<path d="M15 13H14V8.49998L14.1462 8.64623C14.2402 8.74005 14.3676 8.79269 14.5004 8.79257C14.6332 8.79246 14.7606 8.73959 14.8544 8.6456C14.9482 8.55162 15.0008 8.42421 15.0007 8.29141C15.0006 8.15861 14.9477 8.0313 14.8538 7.93748L8.70687 1.79248C8.51936 1.60508 8.2651 1.49982 8 1.49982C7.7349 1.49982 7.48064 1.60508 7.29313 1.79248L1.14625 7.93748C1.05251 8.0313 0.999884 8.15851 0.999943 8.29114C1 8.42376 1.05274 8.55093 1.14656 8.64467C1.24038 8.7384 1.3676 8.79103 1.50022 8.79097C1.63284 8.79091 1.76001 8.73817 1.85375 8.64435L2 8.49998V13H1C0.867392 13 0.740215 13.0527 0.646447 13.1464C0.552678 13.2402 0.5 13.3674 0.5 13.5C0.5 13.6326 0.552678 13.7598 0.646447 13.8535C0.740215 13.9473 0.867392 14 1 14H15C15.1326 14 15.2598 13.9473 15.3536 13.8535C15.4473 13.7598 15.5 13.6326 15.5 13.5C15.5 13.3674 15.4473 13.2402 15.3536 13.1464C15.2598 13.0527 15.1326 13 15 13ZM3 7.49998L8 2.49998L13 7.49998V13H10V9.49998C10 9.36737 9.94732 9.24019 9.85355 9.14642C9.75979 9.05266 9.63261 8.99998 9.5 8.99998H6.5C6.36739 8.99998 6.24021 9.05266 6.14645 9.14642C6.05268 9.24019 6 9.36737 6 9.49998V13H3V7.49998ZM9 13H7V9.99998H9V13Z" fill="black"/>
</svg>
