<svg width="15" height="16" viewBox="0 0 15 16" fill="none" xmlns="http://www.w3.org/2000/svg">
<path d="M13.4059 0.893412C13.9485 0.893412 14.4273 1.3722 14.4273 1.94675V14.1719C14.4273 14.7464 13.9485 15.1933 13.4059 15.1933H1.11694C0.574314 15.1933 0.127442 14.7464 0.127442 14.1719V1.94675C0.127442 1.3722 0.574314 0.893412 1.11694 0.893412H13.4059ZM4.43656 13.1505V6.35163H2.32988V13.1505H4.43656ZM3.38322 5.39404C4.05353 5.39404 4.59616 4.85142 4.59616 4.18111C4.59616 3.5108 4.05353 2.93625 3.38322 2.93625C2.68099 2.93625 2.13836 3.5108 2.13836 4.18111C2.13836 4.85142 2.68099 5.39404 3.38322 5.39404ZM12.3845 13.1505V9.41589C12.3845 7.59648 11.9695 6.16011 9.83093 6.16011C8.80951 6.16011 8.10729 6.73466 7.82001 7.27729H7.78809V6.35163H5.77717V13.1505H7.88385V9.79892C7.88385 8.90518 8.04345 8.04335 9.16063 8.04335C10.2459 8.04335 10.2459 9.06477 10.2459 9.83084V13.1505H12.3845Z" fill="white"/>
</svg>
