<svg width="24" height="24" viewBox="0 0 24 24" fill="none" xmlns="http://www.w3.org/2000/svg">
<path d="M20.4234 19.2267L18.3768 17.0523C19.7373 15.4189 20.4158 13.3239 20.271 11.203C20.1262 9.08217 19.1693 7.09877 17.5994 5.66544C16.0295 4.23211 13.9674 3.45921 11.8422 3.50751C9.71691 3.55581 7.69209 4.42159 6.18892 5.92476C4.68575 7.42793 3.81997 9.45275 3.77167 11.578C3.72337 13.7033 4.49627 15.7653 5.9296 17.3352C7.36293 18.9051 9.34633 19.862 11.4672 20.0068C13.5881 20.1516 15.6831 19.4732 17.3165 18.1127L19.3621 20.288C19.4318 20.3577 19.5145 20.4129 19.6056 20.4506C19.6966 20.4884 19.7942 20.5078 19.8928 20.5078C19.9913 20.5078 20.0889 20.4884 20.1799 20.4506C20.271 20.4129 20.3537 20.3577 20.4234 20.288C20.4931 20.2183 20.5483 20.1356 20.5861 20.0445C20.6238 19.9535 20.6432 19.8559 20.6432 19.7574C20.6432 19.6588 20.6238 19.5612 20.5861 19.4702C20.5483 19.3791 20.4931 19.2964 20.4234 19.2267ZM5.29025 11.7761C5.29025 10.4411 5.68613 9.13603 6.42783 8.02599C7.16953 6.91596 8.22374 6.0508 9.45714 5.53991C10.6905 5.02901 12.0477 4.89534 13.3571 5.15579C14.6665 5.41624 15.8692 6.05912 16.8132 7.00312C17.7572 7.94713 18.4001 9.14986 18.6606 10.4592C18.921 11.7686 18.7873 13.1258 18.2764 14.3592C17.7656 15.5926 16.9004 16.6468 15.7904 17.3885C14.6803 18.1302 13.3753 18.5261 12.0403 18.5261C10.2507 18.5241 8.53492 17.8123 7.26947 16.5469C6.00403 15.2814 5.29224 13.5657 5.29025 11.7761Z" fill="#969696"/>
</svg>
