<svg width="24" height="24" viewBox="0 0 24 24" fill="none" xmlns="http://www.w3.org/2000/svg">
<path d="M22.5 12C22.5 12.9788 21.7959 13.7128 21.1744 14.3606C20.8209 14.73 20.4553 15.1106 20.3175 15.4453C20.19 15.7519 20.1825 16.26 20.175 16.7522C20.1609 17.6672 20.1459 18.7041 19.425 19.425C18.7041 20.1459 17.6672 20.1609 16.7522 20.175C16.26 20.1825 15.7519 20.19 15.4453 20.3175C15.1106 20.4553 14.73 20.8209 14.3606 21.1744C13.7128 21.7959 12.9788 22.5 12 22.5C11.0212 22.5 10.2872 21.7959 9.63937 21.1744C9.27 20.8209 8.88938 20.4553 8.55469 20.3175C8.24813 20.19 7.74 20.1825 7.24781 20.175C6.33281 20.1609 5.29594 20.1459 4.575 19.425C3.85406 18.7041 3.83906 17.6672 3.825 16.7522C3.8175 16.26 3.81 15.7519 3.6825 15.4453C3.54469 15.1106 3.17906 14.73 2.82562 14.3606C2.20406 13.7128 1.5 12.9788 1.5 12C1.5 11.0212 2.20406 10.2872 2.82562 9.63937C3.17906 9.27 3.54469 8.88938 3.6825 8.55469C3.81 8.24813 3.8175 7.74 3.825 7.24781C3.83906 6.33281 3.85406 5.29594 4.575 4.575C5.29594 3.85406 6.33281 3.83906 7.24781 3.825C7.74 3.8175 8.24813 3.81 8.55469 3.6825C8.88938 3.54469 9.27 3.17906 9.63937 2.82562C10.2872 2.20406 11.0212 1.5 12 1.5C12.9788 1.5 13.7128 2.20406 14.3606 2.82562C14.73 3.17906 15.1106 3.54469 15.4453 3.6825C15.7519 3.81 16.26 3.8175 16.7522 3.825C17.6672 3.83906 18.7041 3.85406 19.425 4.575C20.1459 5.29594 20.1609 6.33281 20.175 7.24781C20.1825 7.74 20.19 8.24813 20.3175 8.55469C20.4553 8.88938 20.8209 9.27 21.1744 9.63937C21.7959 10.2872 22.5 11.0212 22.5 12Z" fill="#E46A15"/>
<path d="M8.88058 12.5215C8.21324 12.5215 7.66724 12.2962 7.24258 11.8455C6.82658 11.3862 6.61858 10.7752 6.61858 10.0125C6.61858 9.24985 6.82658 8.64319 7.24258 8.19252C7.66724 7.73319 8.21324 7.50352 8.88058 7.50352C9.54791 7.50352 10.0896 7.73319 10.5056 8.19252C10.9216 8.64319 11.1296 9.24985 11.1296 10.0125C11.1296 10.7752 10.9216 11.3862 10.5056 11.8455C10.0896 12.2962 9.54791 12.5215 8.88058 12.5215ZM14.3016 7.60752H15.8486L9.63458 16.7075H8.08758L14.3016 7.60752ZM8.88058 11.4555C9.17524 11.4555 9.40491 11.3342 9.56958 11.0915C9.74291 10.8489 9.82958 10.4892 9.82958 10.0125C9.82958 9.53585 9.74291 9.17619 9.56958 8.93352C9.40491 8.69085 9.17524 8.56952 8.88058 8.56952C8.59458 8.56952 8.36491 8.69519 8.19158 8.94652C8.01824 9.18919 7.93158 9.54452 7.93158 10.0125C7.93158 10.4805 8.01824 10.8402 8.19158 11.0915C8.36491 11.3342 8.59458 11.4555 8.88058 11.4555ZM15.0556 16.8115C14.6222 16.8115 14.2322 16.7119 13.8856 16.5125C13.5476 16.3045 13.2832 16.0099 13.0926 15.6285C12.9019 15.2472 12.8066 14.8052 12.8066 14.3025C12.8066 13.7999 12.9019 13.3579 13.0926 12.9765C13.2832 12.5952 13.5476 12.3049 13.8856 12.1055C14.2322 11.8975 14.6222 11.7935 15.0556 11.7935C15.7229 11.7935 16.2646 12.0232 16.6806 12.4825C17.1052 12.9332 17.3176 13.5399 17.3176 14.3025C17.3176 15.0652 17.1052 15.6762 16.6806 16.1355C16.2646 16.5862 15.7229 16.8115 15.0556 16.8115ZM15.0556 15.7455C15.3502 15.7455 15.5799 15.6242 15.7446 15.3815C15.9179 15.1302 16.0046 14.7705 16.0046 14.3025C16.0046 13.8345 15.9179 13.4792 15.7446 13.2365C15.5799 12.9852 15.3502 12.8595 15.0556 12.8595C14.7696 12.8595 14.5399 12.9809 14.3666 13.2235C14.1932 13.4662 14.1066 13.8259 14.1066 14.3025C14.1066 14.7792 14.1932 15.1389 14.3666 15.3815C14.5399 15.6242 14.7696 15.7455 15.0556 15.7455Z" fill="white"/>
</svg>
