<svg width="24" height="24" viewBox="0 0 24 24" fill="none" xmlns="http://www.w3.org/2000/svg">
<path fill-rule="evenodd" clip-rule="evenodd" d="M3.17277 3.77653L3 3.82429V13.3602C3 19.085 7.09357 20.8209 11.8631 23.7031C16.6326 20.8209 20.7262 19.085 20.7262 13.3602V3.82325C16.2808 2.60166 14.7502 2.21343 11.8631 0C9.03967 2.16472 7.54785 2.57414 3.17277 3.77653ZM15.1215 8.78799C15.8482 8.06541 16.9458 9.17014 16.2191 9.8917L11.2311 14.8371C10.9089 15.1572 10.3815 15.1349 10.0877 14.7883L8.1832 12.5341C7.5236 11.7546 8.7127 10.7485 9.37227 11.528L10.7331 13.1388L15.1215 8.78799Z" fill="white"/>
</svg>
