<svg width="24" height="24" viewBox="0 0 24 24" fill="none" xmlns="http://www.w3.org/2000/svg">
<path d="M21.4959 11.6955L17.4757 15.1117L18.7005 20.2205C18.7681 20.4978 18.7507 20.7887 18.6505 21.0563C18.5503 21.3239 18.3718 21.5562 18.1376 21.724C17.9034 21.8918 17.624 21.9874 17.3346 21.9988C17.0452 22.0103 16.7588 21.937 16.5117 21.7883L12.0002 19.0539L7.48595 21.7883C7.23886 21.9361 6.95287 22.0087 6.66399 21.9969C6.3751 21.985 6.09623 21.8892 5.8625 21.7216C5.62878 21.554 5.45064 21.322 5.35051 21.0549C5.25039 20.7878 5.23277 20.4975 5.29985 20.2205L6.52914 15.1117L2.50895 11.6955C2.29033 11.5095 2.13223 11.2641 2.05438 10.9901C1.97653 10.7161 1.98238 10.4255 2.0712 10.1548C2.16003 9.884 2.32789 9.645 2.55382 9.46762C2.77975 9.29024 3.05374 9.18234 3.34157 9.15739L8.6125 8.73862L10.6458 3.89284C10.7559 3.62875 10.9432 3.40286 11.184 3.24387C11.4247 3.08489 11.7081 3 11.9979 3C12.2878 3 12.5712 3.08489 12.8119 3.24387C13.0527 3.40286 13.24 3.62875 13.3501 3.89284L15.3825 8.73862L20.6534 9.15739C20.9418 9.18141 21.2166 9.28871 21.4434 9.46585C21.6701 9.64298 21.8388 9.88207 21.9281 10.1532C22.0175 10.4243 22.0237 10.7153 21.9458 10.9898C21.868 11.2643 21.7096 11.5101 21.4905 11.6964L21.4959 11.6955Z" fill="white"/>
</svg>
