<svg width="121" height="90" viewBox="0 0 121 90" fill="none" xmlns="http://www.w3.org/2000/svg">
<path d="M59.689 32.0382C59.6751 32.351 59.6613 32.6638 59.6304 33.1152C59.4993 33.7293 59.8008 34.4272 58.9193 34.5183C52.0112 34.5035 45.181 34.4995 38.3509 34.5059C34.2593 34.5097 30.1677 34.5295 26.0095 34.5204C25.8301 34.4942 25.7173 34.4863 25.6044 34.486C24.1651 34.4814 24.1968 34.4839 24.2909 32.9696C24.5245 29.2087 25.6839 25.7898 27.8793 22.8392C32.6074 16.4845 38.7311 13.5092 46.4384 14.7564C47.9216 14.9964 49.352 15.5996 50.8068 16.0353C50.8068 16.0353 50.8271 16.0155 50.8516 16.069C51.6017 16.4908 52.3272 16.8591 53.0527 17.2273C53.0527 17.2273 53.0508 17.2141 53.0785 17.2643C54.1878 18.1473 55.2694 18.98 56.351 19.8127C56.351 19.8127 56.3508 19.832 56.3855 19.8781C56.5708 20.06 56.7214 20.1958 56.872 20.3315C56.872 20.3315 56.8913 20.3253 56.8998 20.3704C56.9611 20.452 57.0141 20.4885 57.067 20.525C57.067 20.525 57.0624 20.5123 57.0791 20.5614C57.1914 20.6966 57.2871 20.7827 57.3827 20.8688C57.3827 20.8688 57.4403 20.8558 57.4271 20.9052C57.4629 20.9932 57.5119 21.0318 57.5609 21.0703C57.5609 21.0703 57.5485 21.0595 57.5741 21.1216C57.7581 21.3929 57.9132 21.6049 58.0753 21.8108C59.3303 23.4054 60.0575 25.161 59.8559 27.3096C59.7089 28.8763 59.7382 30.4614 59.689 32.0382ZM28.5985 28.0084C28.5249 28.234 28.4492 28.459 28.378 28.6855C28.0635 29.6853 28.1966 30.4044 28.785 30.5333C29.7014 30.7341 29.8005 29.9449 30.0115 29.3012C31.2729 25.4538 33.5021 22.5244 37.1568 20.9528C37.3397 20.8742 37.5846 20.8256 37.6796 20.677C37.8821 20.3602 38.1422 19.9718 38.1096 19.6423C38.0896 19.4407 37.543 19.1138 37.2807 19.1581C36.6247 19.2688 35.948 19.4642 35.3643 19.7929C32.1688 21.5929 29.9284 24.3002 28.5985 28.0084Z" fill="#E46A15"/>
<path d="M60.937 13.5515C60.937 13.5515 60.9236 13.5659 60.9139 13.5026C60.8287 13.3911 60.7532 13.343 60.6778 13.2949C60.6778 13.2949 60.7175 13.2827 60.6934 13.2028C58.4205 9.84494 58.2231 6.37678 59.8364 2.77162C60.9627 0.254855 63.7845 -0.811289 66.0924 0.688065C66.0924 0.688065 66.087 0.669755 66.1113 0.716703C66.3004 0.890361 66.4652 1.01707 66.6299 1.14378C66.6299 1.14378 66.6314 1.1298 66.6452 1.18498C68.2631 3.07005 68.739 5.31052 68.8034 7.74666C68.7803 7.97475 68.7731 8.15114 68.7423 8.39052C68.7158 8.54312 68.7128 8.63272 68.6891 8.78944C68.451 10.6886 67.5645 12.1824 66.4757 13.5739C66.4757 13.5739 66.4864 13.5773 66.4313 13.5884C65.3561 14.3505 65.1277 15.4924 65.155 16.6549C65.2245 19.6178 65.3822 22.5784 65.4937 25.6204C65.5062 26.3316 65.5295 26.9625 65.553 27.5933C65.6886 31.2366 65.8243 34.8799 65.9206 38.5656C65.4009 39.8687 64.668 40.2865 63.4223 40.0096C62.1131 39.7187 61.6048 39.0689 61.6518 37.6436C61.7487 34.7052 61.8709 31.7677 61.9948 28.7519C62.152 25.0265 62.3372 21.3798 62.4154 17.7307C62.4365 16.7499 62.1318 15.7616 61.9766 14.7767C61.9569 14.6851 61.9372 14.5935 61.8728 14.4157C61.6129 14.1294 61.3977 13.9294 61.1825 13.7294C61.1825 13.7294 61.1784 13.7466 61.1641 13.6935C61.0789 13.6108 61.008 13.5811 60.937 13.5515Z" fill="#E46A15"/>
<path d="M23.4324 39.9311C21.7417 39.3432 20.3648 38.3543 19.8012 36.2242C20.346 35.9769 20.8788 35.735 21.4124 35.7331C28.7489 35.7057 36.0856 35.7197 43.4222 35.706C48.6135 35.6964 53.8048 35.6603 58.9961 35.636C59.0579 36.1823 59.1836 36.7309 59.1675 37.2743C59.1379 38.2716 59.3577 39.1441 59.8921 39.9594C59.0001 40.0422 58.1575 40.0634 57.2371 40.0684C55.4091 40.0666 53.659 40.0809 51.8324 40.082C51.293 40.0789 50.8301 40.089 50.29 40.0817C49.4228 40.0754 48.6328 40.0866 47.7636 40.0836C46.2628 40.0797 44.8413 40.0898 43.3594 40.0827C43.1759 40.0769 43.0528 40.0884 42.8504 40.0856C40.7847 40.081 38.7981 40.0905 36.7399 40.0826C36.3271 40.0776 35.986 40.0901 35.5683 40.0892C35.0277 40.0855 34.5636 40.0952 34.0229 40.0874C33.2134 40.0807 32.4805 40.0917 31.6685 40.0878C28.8704 40.0257 26.1514 39.9784 23.4324 39.9311Z" fill="#E46A15"/>
<path d="M41.8987 9.71512C41.9694 9.65774 42.0132 9.62495 42.0706 9.54307C43.0027 8.87845 43.9548 8.68986 45.0388 9.20293C45.2745 9.35342 45.4444 9.4945 45.6635 9.66024C45.7641 9.7662 45.8156 9.84748 45.9087 9.95032C46.4799 10.9014 46.7128 11.8785 46.3527 13.0222C45.5764 13.1765 44.816 13.2567 43.9772 13.3567C43.7687 13.3682 43.6385 13.3599 43.444 13.364C42.8888 13.36 42.3943 13.2949 41.9084 13.3389C41.207 13.4024 40.8663 13.0104 40.977 12.3702C41.1191 11.5485 41.4424 10.7625 41.7209 9.90607C41.8051 9.83126 41.8472 9.79838 41.8987 9.71512Z" fill="#E46A15"/>
<path d="M1.81968 67.8V46.8546H10.206C11.7469 46.8546 13.0322 47.083 14.0617 47.5398C15.0913 47.9966 15.8651 48.6307 16.3833 49.4421C16.9015 50.2466 17.1606 51.1739 17.1606 52.2239C17.1606 53.0421 16.997 53.7614 16.6697 54.3819C16.3424 54.9955 15.8924 55.5 15.3197 55.8955C14.7538 56.2841 14.106 56.5603 13.3765 56.7239V56.9285C14.1742 56.9625 14.9208 57.1875 15.6163 57.6035C16.3185 58.0194 16.8879 58.6023 17.3242 59.3523C17.7606 60.0955 17.9788 60.9819 17.9788 62.0114C17.9788 63.1228 17.7026 64.1148 17.1504 64.9875C16.6049 65.8535 15.797 66.5387 14.7265 67.0432C13.656 67.5478 12.3367 67.8 10.7685 67.8H1.81968ZM6.24809 64.1796H9.85831C11.0924 64.1796 11.9924 63.9444 12.5583 63.4739C13.1242 62.9966 13.4072 62.3625 13.4072 61.5716C13.4072 60.9921 13.2674 60.4807 12.9879 60.0375C12.7083 59.5944 12.3095 59.2466 11.7913 58.9944C11.2799 58.7421 10.6697 58.616 9.96059 58.616H6.24809V64.1796ZM6.24809 55.6194H9.53104C10.1379 55.6194 10.6765 55.5137 11.1469 55.3023C11.6242 55.0841 11.9992 54.7773 12.2719 54.3819C12.5515 53.9864 12.6913 53.5125 12.6913 52.9603C12.6913 52.2035 12.4219 51.5932 11.8833 51.1296C11.3515 50.666 10.5947 50.4341 9.61286 50.4341H6.24809V55.6194ZM26.1527 46.8546V67.8H21.7243V46.8546H26.1527ZM29.8625 50.5057V46.8546H47.0647V50.5057H40.6522V67.8H36.275V50.5057H29.8625ZM50.7617 67.8V46.8546H64.8753V50.5057H55.1901V55.4966H64.1492V59.1478H55.1901V64.1489H64.9162V67.8H50.7617ZM69.0351 67.8V65.1716L79.4873 50.5057H69.0146V46.8546H85.051V49.483L74.5885 64.1489H85.0714V67.8H69.0351ZM93.7618 46.8546V67.8H89.3334V46.8546H93.7618ZM117.517 57.3273C117.517 59.6114 117.084 61.5546 116.218 63.1569C115.359 64.7591 114.186 65.983 112.7 66.8285C111.22 67.6671 109.557 68.0864 107.709 68.0864C105.848 68.0864 104.177 67.6637 102.698 66.8182C101.218 65.9728 100.049 64.7489 99.1898 63.1466C98.3307 61.5444 97.9011 59.6046 97.9011 57.3273C97.9011 55.0432 98.3307 53.1 99.1898 51.4978C100.049 49.8955 101.218 48.675 102.698 47.8364C104.177 46.991 105.848 46.5682 107.709 46.5682C109.557 46.5682 111.22 46.991 112.7 47.8364C114.186 48.675 115.359 49.8955 116.218 51.4978C117.084 53.1 117.517 55.0432 117.517 57.3273ZM113.027 57.3273C113.027 55.8478 112.806 54.6 112.362 53.5841C111.926 52.5682 111.309 51.7978 110.511 51.2728C109.714 50.7478 108.78 50.4853 107.709 50.4853C106.639 50.4853 105.705 50.7478 104.907 51.2728C104.109 51.7978 103.489 52.5682 103.045 53.5841C102.609 54.6 102.391 55.8478 102.391 57.3273C102.391 58.8069 102.609 60.0546 103.045 61.0705C103.489 62.0864 104.109 62.8569 104.907 63.3819C105.705 63.9069 106.639 64.1694 107.709 64.1694C108.78 64.1694 109.714 63.9069 110.511 63.3819C111.309 62.8569 111.926 62.0864 112.362 61.0705C112.806 60.0546 113.027 58.8069 113.027 57.3273Z" fill="#E46A15"/>
<path d="M0.934059 85.8V77.291H4.05018C4.65402 77.291 5.15398 77.3907 5.55007 77.5901C5.94617 77.7868 6.24255 78.0541 6.43921 78.392C6.63587 78.7271 6.7342 79.1052 6.7342 79.5263C6.7342 79.8808 6.66911 80.1799 6.53892 80.4237C6.40874 80.6647 6.23424 80.8586 6.01542 81.0054C5.79936 81.1494 5.56115 81.2547 5.30078 81.3211V81.4042C5.58331 81.4181 5.85892 81.5095 6.1276 81.6785C6.39904 81.8447 6.62341 82.0815 6.80068 82.3889C6.97795 82.6964 7.06659 83.0703 7.06659 83.5107C7.06659 83.9456 6.9641 84.3362 6.75913 84.6824C6.55693 85.0259 6.24393 85.2987 5.82014 85.5009C5.39635 85.7003 4.85483 85.8 4.1956 85.8H0.934059ZM2.2179 84.699H4.07096C4.68587 84.699 5.12628 84.5799 5.39219 84.3417C5.6581 84.1035 5.79105 83.8057 5.79105 83.4484C5.79105 83.1797 5.72319 82.9332 5.58747 82.7089C5.45174 82.4845 5.25785 82.3058 5.00579 82.1729C4.7565 82.0399 4.46012 81.9735 4.11666 81.9735H2.2179V84.699ZM2.2179 80.9721H3.938C4.22607 80.9721 4.48505 80.9167 4.71495 80.8059C4.94762 80.6951 5.13182 80.54 5.26755 80.3406C5.40604 80.1384 5.47529 79.9002 5.47529 79.626C5.47529 79.2742 5.35203 78.9792 5.10551 78.741C4.85899 78.5028 4.4809 78.3837 3.97124 78.3837H2.2179V80.9721ZM8.48962 85.8V79.4182H9.69036V80.432H9.75684C9.87317 80.0885 10.0781 79.8185 10.3718 79.6218C10.6681 79.4224 11.0033 79.3227 11.3772 79.3227C11.4548 79.3227 11.5462 79.3254 11.6514 79.331C11.7595 79.3365 11.8439 79.3434 11.9049 79.3518V80.54C11.855 80.5262 11.7664 80.511 11.639 80.4943C11.5116 80.4749 11.3841 80.4652 11.2567 80.4652C10.9631 80.4652 10.7014 80.5276 10.4715 80.6522C10.2443 80.7741 10.0643 80.9444 9.93134 81.1633C9.79839 81.3793 9.73191 81.6258 9.73191 81.9028V85.8H8.48962ZM12.9799 85.8V79.4182H14.2222V85.8H12.9799ZM13.6073 78.4335C13.3913 78.4335 13.2057 78.3615 13.0506 78.2175C12.8982 78.0707 12.8221 77.8962 12.8221 77.694C12.8221 77.489 12.8982 77.3145 13.0506 77.1705C13.2057 77.0237 13.3913 76.9503 13.6073 76.9503C13.8234 76.9503 14.0076 77.0237 14.1599 77.1705C14.315 77.3145 14.3926 77.489 14.3926 77.694C14.3926 77.8962 14.315 78.0707 14.1599 78.2175C14.0076 78.3615 13.8234 78.4335 13.6073 78.4335ZM17.1358 82.0108V85.8H15.8935V79.4182H17.086V80.4569H17.1649C17.3117 80.119 17.5416 79.8476 17.8546 79.6426C18.1704 79.4376 18.5678 79.3351 19.047 79.3351C19.4819 79.3351 19.8628 79.4265 20.1896 79.6094C20.5165 79.7894 20.7699 80.0581 20.95 80.4154C21.13 80.7727 21.22 81.2145 21.22 81.7408V85.8H19.9777V81.8904C19.9777 81.4278 19.8572 81.0663 19.6163 80.8059C19.3753 80.5428 19.0443 80.4112 18.6232 80.4112C18.3352 80.4112 18.079 80.4736 17.8546 80.5982C17.633 80.7228 17.4571 80.9057 17.3269 81.1466C17.1995 81.3848 17.1358 81.6729 17.1358 82.0108ZM25.5618 88.3262C25.0549 88.3262 24.6187 88.2597 24.253 88.1268C23.8902 87.9938 23.5938 87.8179 23.3639 87.5991C23.134 87.3803 22.9623 87.1407 22.8487 86.8803L23.9165 86.4399C23.9913 86.5618 24.091 86.6906 24.2156 86.8263C24.3431 86.9648 24.5148 87.0825 24.7308 87.1795C24.9497 87.2764 25.2308 87.3249 25.5743 87.3249C26.0452 87.3249 26.4343 87.2099 26.7418 86.98C27.0492 86.7529 27.203 86.39 27.203 85.8915V84.6367H27.124C27.0492 84.7724 26.9412 84.9234 26.8 85.0896C26.6615 85.2558 26.4703 85.3998 26.2266 85.5217C25.9828 85.6436 25.6657 85.7045 25.2751 85.7045C24.771 85.7045 24.3167 85.5868 23.9123 85.3513C23.5107 85.1131 23.1922 84.7627 22.9567 84.3002C22.7241 83.8348 22.6077 83.2628 22.6077 82.5842C22.6077 81.9056 22.7227 81.3239 22.9526 80.8392C23.1853 80.3545 23.5038 79.9833 23.9082 79.7257C24.3126 79.4653 24.771 79.3351 25.2834 79.3351C25.6795 79.3351 25.9995 79.4016 26.2432 79.5346C26.487 79.6647 26.6767 79.8171 26.8124 79.9916C26.9509 80.1661 27.0576 80.3198 27.1323 80.4528H27.2237V79.4182H28.4411V85.9413C28.4411 86.4898 28.3137 86.9399 28.0589 87.2916C27.804 87.6434 27.4592 87.9038 27.0243 88.0727C26.5922 88.2417 26.1047 88.3262 25.5618 88.3262ZM25.5493 84.6741C25.9067 84.6741 26.2086 84.591 26.4551 84.4248C26.7044 84.2558 26.8927 84.0149 27.0202 83.7019C27.1503 83.3861 27.2154 83.008 27.2154 82.5676C27.2154 82.1383 27.1517 81.7602 27.0243 81.4333C26.8969 81.1065 26.7099 80.8516 26.4634 80.6688C26.2169 80.4833 25.9122 80.3905 25.5493 80.3905C25.1754 80.3905 24.8638 80.4874 24.6145 80.6813C24.3652 80.8724 24.1769 81.1328 24.0495 81.4624C23.9248 81.792 23.8625 82.1604 23.8625 82.5676C23.8625 82.9858 23.9262 83.3529 24.0536 83.6686C24.181 83.9844 24.3694 84.2309 24.6187 84.4082C24.8707 84.5855 25.181 84.6741 25.5493 84.6741ZM30.1072 85.8V79.4182H31.3495V85.8H30.1072ZM30.7346 78.4335C30.5185 78.4335 30.3329 78.3615 30.1778 78.2175C30.0255 78.0707 29.9493 77.8962 29.9493 77.694C29.9493 77.489 30.0255 77.3145 30.1778 77.1705C30.3329 77.0237 30.5185 76.9503 30.7346 76.9503C30.9506 76.9503 31.1348 77.0237 31.2872 77.1705C31.4423 77.3145 31.5198 77.489 31.5198 77.694C31.5198 77.8962 31.4423 78.0707 31.2872 78.2175C31.1348 78.3615 30.9506 78.4335 30.7346 78.4335ZM34.2631 82.0108V85.8H33.0208V79.4182H34.2132V80.4569H34.2921C34.439 80.119 34.6689 79.8476 34.9819 79.6426C35.2976 79.4376 35.6951 79.3351 36.1743 79.3351C36.6092 79.3351 36.99 79.4265 37.3169 79.6094C37.6437 79.7894 37.8972 80.0581 38.0772 80.4154C38.2572 80.7727 38.3473 81.2145 38.3473 81.7408V85.8H37.105V81.8904C37.105 81.4278 36.9845 81.0663 36.7435 80.8059C36.5025 80.5428 36.1715 80.4112 35.7505 80.4112C35.4624 80.4112 35.2062 80.4736 34.9819 80.5982C34.7603 80.7228 34.5844 80.9057 34.4542 81.1466C34.3268 81.3848 34.2631 81.6729 34.2631 82.0108ZM42.6891 88.3262C42.1822 88.3262 41.7459 88.2597 41.3803 88.1268C41.0174 87.9938 40.7211 87.8179 40.4912 87.5991C40.2613 87.3803 40.0895 87.1407 39.976 86.8803L41.0437 86.4399C41.1185 86.5618 41.2182 86.6906 41.3429 86.8263C41.4703 86.9648 41.642 87.0825 41.8581 87.1795C42.0769 87.2764 42.3581 87.3249 42.7015 87.3249C43.1724 87.3249 43.5616 87.2099 43.869 86.98C44.1765 86.7529 44.3302 86.39 44.3302 85.8915V84.6367H44.2513C44.1765 84.7724 44.0685 84.9234 43.9272 85.0896C43.7887 85.2558 43.5976 85.3998 43.3538 85.5217C43.1101 85.6436 42.7929 85.7045 42.4024 85.7045C41.8983 85.7045 41.444 85.5868 41.0396 85.3513C40.638 85.1131 40.3194 84.7627 40.084 84.3002C39.8513 83.8348 39.735 83.2628 39.735 82.5842C39.735 81.9056 39.8499 81.3239 40.0798 80.8392C40.3125 80.3545 40.631 79.9833 41.0354 79.7257C41.4398 79.4653 41.8983 79.3351 42.4107 79.3351C42.8068 79.3351 43.1267 79.4016 43.3704 79.5346C43.6142 79.6647 43.8039 79.8171 43.9397 79.9916C44.0782 80.1661 44.1848 80.3198 44.2596 80.4528H44.351V79.4182H45.5684V85.9413C45.5684 86.4898 45.4409 86.9399 45.1861 87.2916C44.9313 87.6434 44.5864 87.9038 44.1516 88.0727C43.7195 88.2417 43.232 88.3262 42.6891 88.3262ZM42.6766 84.6741C43.0339 84.6741 43.3358 84.591 43.5823 84.4248C43.8316 84.2558 44.02 84.0149 44.1474 83.7019C44.2776 83.3861 44.3427 83.008 44.3427 82.5676C44.3427 82.1383 44.279 81.7602 44.1516 81.4333C44.0241 81.1065 43.8372 80.8516 43.5907 80.6688C43.3441 80.4833 43.0394 80.3905 42.6766 80.3905C42.3027 80.3905 41.991 80.4874 41.7418 80.6813C41.4925 80.8724 41.3041 81.1328 41.1767 81.4624C41.0521 81.792 40.9897 82.1604 40.9897 82.5676C40.9897 82.9858 41.0534 83.3529 41.1809 83.6686C41.3083 83.9844 41.4966 84.2309 41.7459 84.4082C41.998 84.5855 42.3082 84.6741 42.6766 84.6741ZM50.4305 85.8V77.291H55.7072V78.3961H51.7144V80.9888H55.3291V82.0898H51.7144V85.8H50.4305ZM59.406 85.9288C58.8077 85.9288 58.2856 85.7917 57.8396 85.5175C57.3937 85.2433 57.0475 84.8597 56.8009 84.3666C56.5544 83.8736 56.4312 83.2975 56.4312 82.6382C56.4312 81.9762 56.5544 81.3973 56.8009 80.9015C57.0475 80.4057 57.3937 80.0207 57.8396 79.7465C58.2856 79.4722 58.8077 79.3351 59.406 79.3351C60.0043 79.3351 60.5264 79.4722 60.9724 79.7465C61.4183 80.0207 61.7646 80.4057 62.0111 80.9015C62.2576 81.3973 62.3809 81.9762 62.3809 82.6382C62.3809 83.2975 62.2576 83.8736 62.0111 84.3666C61.7646 84.8597 61.4183 85.2433 60.9724 85.5175C60.5264 85.7917 60.0043 85.9288 59.406 85.9288ZM59.4102 84.886C59.798 84.886 60.1193 84.7835 60.3741 84.5785C60.6289 84.3736 60.8173 84.1007 60.9391 83.76C61.0638 83.4193 61.1261 83.044 61.1261 82.6341C61.1261 82.2269 61.0638 81.853 60.9391 81.5123C60.8173 81.1688 60.6289 80.8932 60.3741 80.6855C60.1193 80.4777 59.798 80.3738 59.4102 80.3738C59.0196 80.3738 58.6955 80.4777 58.4379 80.6855C58.1831 80.8932 57.9934 81.1688 57.8687 81.5123C57.7469 81.853 57.6859 82.2269 57.6859 82.6341C57.6859 83.044 57.7469 83.4193 57.8687 83.76C57.9934 84.1007 58.1831 84.3736 58.4379 84.5785C58.6955 84.7835 59.0196 84.886 59.4102 84.886ZM66.4557 85.9288C65.8574 85.9288 65.3353 85.7917 64.8894 85.5175C64.4434 85.2433 64.0972 84.8597 63.8506 84.3666C63.6041 83.8736 63.4809 83.2975 63.4809 82.6382C63.4809 81.9762 63.6041 81.3973 63.8506 80.9015C64.0972 80.4057 64.4434 80.0207 64.8894 79.7465C65.3353 79.4722 65.8574 79.3351 66.4557 79.3351C67.054 79.3351 67.5761 79.4722 68.0221 79.7465C68.468 80.0207 68.8143 80.4057 69.0608 80.9015C69.3073 81.3973 69.4306 81.9762 69.4306 82.6382C69.4306 83.2975 69.3073 83.8736 69.0608 84.3666C68.8143 84.8597 68.468 85.2433 68.0221 85.5175C67.5761 85.7917 67.054 85.9288 66.4557 85.9288ZM66.4599 84.886C66.8477 84.886 67.169 84.7835 67.4238 84.5785C67.6786 84.3736 67.867 84.1007 67.9889 83.76C68.1135 83.4193 68.1758 83.044 68.1758 82.6341C68.1758 82.2269 68.1135 81.853 67.9889 81.5123C67.867 81.1688 67.6786 80.8932 67.4238 80.6855C67.169 80.4777 66.8477 80.3738 66.4599 80.3738C66.0693 80.3738 65.7452 80.4777 65.4876 80.6855C65.2328 80.8932 65.0431 81.1688 64.9184 81.5123C64.7966 81.853 64.7356 82.2269 64.7356 82.6341C64.7356 83.044 64.7966 83.4193 64.9184 83.76C65.0431 84.1007 65.2328 84.3736 65.4876 84.5785C65.7452 84.7835 66.0693 84.886 66.4599 84.886ZM73.2063 85.9247C72.6911 85.9247 72.2313 85.7931 71.8269 85.53C71.4252 85.2641 71.1095 84.886 70.8796 84.3957C70.6524 83.9027 70.5389 83.3113 70.5389 82.6216C70.5389 81.9319 70.6538 81.3419 70.8837 80.8516C71.1164 80.3614 71.4349 79.9861 71.8393 79.7257C72.2437 79.4653 72.7022 79.3351 73.2146 79.3351C73.6107 79.3351 73.9292 79.4016 74.1702 79.5346C74.414 79.6647 74.6023 79.8171 74.7353 79.9916C74.871 80.1661 74.9762 80.3198 75.051 80.4528H75.1258V77.291H76.3681V85.8H75.1549V84.807H75.051C74.9762 84.9428 74.8682 85.0979 74.7269 85.2724C74.5885 85.4469 74.3973 85.5992 74.1536 85.7294C73.9098 85.8596 73.5941 85.9247 73.2063 85.9247ZM73.4805 84.8652C73.8378 84.8652 74.1397 84.771 74.3863 84.5827C74.6355 84.3916 74.8239 84.127 74.9513 83.7891C75.0815 83.4512 75.1466 83.0579 75.1466 82.6091C75.1466 82.166 75.0829 81.7782 74.9555 81.4458C74.828 81.1134 74.6411 80.8544 74.3946 80.6688C74.148 80.4833 73.8434 80.3905 73.4805 80.3905C73.1066 80.3905 72.795 80.4874 72.5457 80.6813C72.2964 80.8752 72.108 81.1397 71.9806 81.4749C71.856 81.81 71.7936 82.1881 71.7936 82.6091C71.7936 83.0357 71.8573 83.4193 71.9848 83.76C72.1122 84.1007 72.3005 84.3708 72.5498 84.5702C72.8019 84.7669 73.1121 84.8652 73.4805 84.8652ZM84.2166 79.4182V80.4154H80.7307V79.4182H84.2166ZM81.6655 77.8893H82.9078V83.9262C82.9078 84.1672 82.9438 84.3486 83.0158 84.4705C83.0879 84.5896 83.1806 84.6713 83.2942 84.7156C83.4105 84.7572 83.5366 84.778 83.6723 84.778C83.772 84.778 83.8593 84.771 83.9341 84.7572C84.0088 84.7433 84.067 84.7323 84.1086 84.7239L84.3329 85.7502C84.2609 85.7779 84.1584 85.8056 84.0255 85.8333C83.8925 85.8638 83.7263 85.8804 83.5269 85.8831C83.2 85.8887 82.8953 85.8305 82.6128 85.7086C82.3303 85.5868 82.1018 85.3984 81.9273 85.1436C81.7528 84.8888 81.6655 84.5688 81.6655 84.1838V77.8893ZM88.2104 85.9288C87.6121 85.9288 87.09 85.7917 86.644 85.5175C86.1981 85.2433 85.8519 84.8597 85.6053 84.3666C85.3588 83.8736 85.2356 83.2975 85.2356 82.6382C85.2356 81.9762 85.3588 81.3973 85.6053 80.9015C85.8519 80.4057 86.1981 80.0207 86.644 79.7465C87.09 79.4722 87.6121 79.3351 88.2104 79.3351C88.8087 79.3351 89.3308 79.4722 89.7768 79.7465C90.2227 80.0207 90.569 80.4057 90.8155 80.9015C91.062 81.3973 91.1853 81.9762 91.1853 82.6382C91.1853 83.2975 91.062 83.8736 90.8155 84.3666C90.569 84.8597 90.2227 85.2433 89.7768 85.5175C89.3308 85.7917 88.8087 85.9288 88.2104 85.9288ZM88.2146 84.886C88.6024 84.886 88.9237 84.7835 89.1785 84.5785C89.4333 84.3736 89.6217 84.1007 89.7435 83.76C89.8682 83.4193 89.9305 83.044 89.9305 82.6341C89.9305 82.2269 89.8682 81.853 89.7435 81.5123C89.6217 81.1688 89.4333 80.8932 89.1785 80.6855C88.9237 80.4777 88.6024 80.3738 88.2146 80.3738C87.824 80.3738 87.4999 80.4777 87.2423 80.6855C86.9875 80.8932 86.7978 81.1688 86.6731 81.5123C86.5513 81.853 86.4903 82.2269 86.4903 82.6341C86.4903 83.044 86.5513 83.4193 86.6731 83.76C86.7978 84.1007 86.9875 84.3736 87.2423 84.5785C87.4999 84.7835 87.824 84.886 88.2146 84.886ZM95.7681 85.8V77.291H97.0519V84.6949H100.908V85.8H95.7681ZM102.272 85.8V79.4182H103.515V85.8H102.272ZM102.9 78.4335C102.684 78.4335 102.498 78.3615 102.343 78.2175C102.191 78.0707 102.115 77.8962 102.115 77.694C102.115 77.489 102.191 77.3145 102.343 77.1705C102.498 77.0237 102.684 76.9503 102.9 76.9503C103.116 76.9503 103.3 77.0237 103.452 77.1705C103.608 77.3145 103.685 77.489 103.685 77.694C103.685 77.8962 103.608 78.0707 103.452 78.2175C103.3 78.3615 103.116 78.4335 102.9 78.4335ZM108.223 79.4182V80.4154H104.617V79.4182H108.223ZM105.606 85.8V78.6787C105.606 78.2798 105.693 77.9488 105.867 77.6857C106.042 77.4198 106.273 77.2217 106.561 77.0915C106.849 76.9586 107.162 76.8921 107.5 76.8921C107.75 76.8921 107.963 76.9129 108.14 76.9544C108.317 76.9932 108.449 77.0292 108.535 77.0624L108.244 78.0679C108.186 78.0513 108.111 78.0319 108.02 78.0097C107.928 77.9848 107.817 77.9723 107.687 77.9723C107.385 77.9723 107.169 78.0471 107.039 78.1967C106.912 78.3463 106.848 78.5623 106.848 78.8449V85.8H105.606ZM112.004 85.9288C111.375 85.9288 110.834 85.7945 110.38 85.5258C109.928 85.2544 109.579 84.8735 109.333 84.3833C109.089 83.8902 108.967 83.3127 108.967 82.6507C108.967 81.997 109.089 81.4209 109.333 80.9223C109.579 80.4237 109.923 80.0345 110.363 79.7548C110.806 79.475 111.324 79.3351 111.917 79.3351C112.277 79.3351 112.626 79.3947 112.964 79.5138C113.302 79.6329 113.605 79.8199 113.874 80.0747C114.142 80.3295 114.354 80.6605 114.509 81.0677C114.665 81.4721 114.742 81.9638 114.742 82.5427V82.9831H109.669V82.0524H113.525C113.525 81.7255 113.458 81.4361 113.325 81.184C113.192 80.9292 113.005 80.7284 112.764 80.5816C112.526 80.4348 112.246 80.3614 111.925 80.3614C111.576 80.3614 111.271 80.4472 111.011 80.619C110.753 80.7879 110.554 81.0095 110.413 81.2837C110.274 81.5552 110.205 81.8502 110.205 82.1687V82.8958C110.205 83.3224 110.28 83.6852 110.429 83.9844C110.582 84.2835 110.794 84.5121 111.065 84.6699C111.337 84.825 111.654 84.9026 112.017 84.9026C112.252 84.9026 112.467 84.8694 112.661 84.8029C112.854 84.7336 113.022 84.6312 113.163 84.4954C113.305 84.3597 113.413 84.1921 113.487 83.9927L114.663 84.2046C114.569 84.5508 114.4 84.8541 114.156 85.1145C113.915 85.3721 113.612 85.5729 113.246 85.717C112.884 85.8582 112.469 85.9288 112.004 85.9288Z" fill="#E46A15"/>
</svg>
